<svg width="63" height="25" viewBox="0 0 63 25" fill="none" xmlns="http://www.w3.org/2000/svg">
<path d="M24.1563 12.0719C24.1563 18.7383 18.7491 24.1425 12.0786 24.1425C5.40762 24.1425 0 18.7383 0 12.0719C0 5.40462 5.40762 0 12.0786 0C18.7487 0 24.1563 5.40462 24.1563 12.0719Z" fill="#FEFEFE"/>
<path d="M53.5045 5.77836H50.7245V18.4498H53.5045C57.7474 18.4498 60.1129 15.9427 60.1129 12.1139C60.1129 8.25749 57.7874 5.7788 53.5045 5.7788V5.77836ZM53.6916 21.0942H49.2679C48.4591 21.0942 47.8108 20.4839 47.8108 19.6374V4.56544C47.8108 3.7549 48.4587 3.13623 49.2679 3.13623H53.6916C59.6885 3.13623 63 7.15294 63 12.1139C63 17.0761 59.652 21.0946 53.6916 21.0946V21.0942ZM39.3907 12.9235H34.0782V18.425H39.3907C41.5188 18.425 42.4956 17.0495 42.4956 15.674C42.4956 14.2981 41.5326 12.9231 39.3907 12.9231V12.9235ZM38.7313 5.77836H34.0782V10.3085H38.7313C40.5754 10.3085 41.4442 9.28299 41.4442 8.04209C41.4442 6.77543 40.6305 5.77836 38.7313 5.77836ZM39.2859 21.0942H32.6211C31.8119 21.0942 31.1911 20.4457 31.1911 19.6374V4.56544C31.1911 3.7549 31.8119 3.13623 32.6211 3.13623H38.8539C42.2792 3.13623 44.33 5.12771 44.33 7.71699C44.33 10.3334 42.7298 11.2665 42.173 11.4672C43.0377 11.6857 45.3822 12.6775 45.3822 15.9507C45.3822 18.7558 43.1195 21.0942 39.2859 21.0942Z" fill="#372B6B"/>
<path d="M15.9902 8.77334C16.0106 8.77334 16.0293 8.76979 16.0515 8.76446C16.1022 8.75114 23.0567 7.03413 23.0567 7.03413C22.0981 4.95027 20.5637 3.18619 18.6564 1.94662C18.6564 1.94662 15.952 8.6139 15.9378 8.64721C15.9271 8.67563 15.924 8.69251 15.924 8.70672C15.924 8.74447 15.9538 8.77379 15.9902 8.77379V8.77334ZM13.4621 7.12207C13.4728 7.17847 13.5052 7.19713 13.5363 7.19713C13.5661 7.19713 13.5897 7.1767 13.6226 7.14294C13.7843 6.97328 18.5814 1.89821 18.5814 1.89821C16.715 0.70439 14.4998 0.0088826 12.121 0C12.121 0 13.399 6.78897 13.4621 7.12207ZM17.2136 11.4386C17.2544 11.4523 24.0378 13.7649 24.0378 13.7649C24.1152 13.2111 24.1552 12.6466 24.1552 12.0719C24.1552 10.3065 23.7757 8.62945 23.0949 7.11807C23.0949 7.11807 17.2229 11.2569 17.1873 11.2831C17.1509 11.3089 17.1358 11.3315 17.1358 11.3582C17.1358 11.4057 17.1727 11.4252 17.2131 11.439L17.2136 11.4386ZM8.23139 8.70672C8.23139 8.69251 8.22828 8.67563 8.21761 8.64721C8.20384 8.6139 5.49803 1.94662 5.49803 1.94662C3.5921 3.18663 2.05678 4.95027 1.09827 7.03413C1.09827 7.03413 8.05275 8.75158 8.10429 8.76446C8.12518 8.76979 8.14474 8.77334 8.16607 8.77334C8.20073 8.77334 8.23184 8.74403 8.23184 8.70628L8.23139 8.70672ZM12.0335 0C9.65606 0.0088826 7.43995 0.70439 5.57357 1.89821C5.57357 1.89821 10.3711 6.97328 10.5328 7.14294C10.5653 7.1767 10.5888 7.19713 10.6195 7.19713C10.6492 7.19713 10.6821 7.17847 10.6928 7.12207C10.7554 6.78897 12.033 0 12.033 0H12.0335ZM6.94181 11.4386C6.90137 11.4523 0.118414 13.7649 0.118414 13.7649C0.0402036 13.2111 0.000213623 12.6466 0.000213623 12.0719C0.000213623 10.3065 0.378816 8.62945 1.06093 7.11807C1.06093 7.11807 6.93293 11.2569 6.96803 11.2831C7.00403 11.3089 7.02002 11.3315 7.02002 11.3582C7.02002 11.4057 6.98314 11.4257 6.94226 11.439L6.94181 11.4386Z" fill="#E95522"/>
<path d="M12.0792 24.1423C18.1321 24.1423 23.1446 19.6922 24.021 13.8887L19.5194 14.5154C19.4497 14.5252 19.4212 14.5611 19.4048 14.61C18.5125 17.2095 16.263 19.1867 13.4741 19.6944C14.5366 19.177 15.269 18.0875 15.269 16.8271C15.269 15.0665 13.8407 13.6387 12.0792 13.6387C10.3177 13.6387 8.8895 15.0665 8.8895 16.8271C8.8895 18.088 9.62094 19.177 10.6834 19.6944C7.89454 19.1867 5.64511 17.209 4.75325 14.61C4.73547 14.5611 4.70792 14.5247 4.63815 14.5154L0.136627 13.8887C1.01294 19.6922 6.0255 24.1423 12.0792 24.1423Z" fill="#E95522"/>
</svg>
