<svg width="92" height="24" viewBox="0 0 92 24" fill="none" xmlns="http://www.w3.org/2000/svg">
<path d="M40.4734 14.2505H41.3271V4.04443H40.4734V14.2505Z" fill="#0AB9DE"/>
<path d="M48.0404 13.7505C45.5569 13.7505 43.6116 11.7329 43.6116 9.15789C43.6116 6.62639 45.5891 4.48915 47.9289 4.48915C50.4853 4.48915 52.4134 6.42397 52.4134 8.99038C52.4134 11.7486 50.5748 13.7505 48.0404 13.7505ZM47.9662 3.74731C45.1526 3.74731 42.7763 6.22546 42.7763 9.1575C42.7763 12.1099 45.1377 14.5112 48.0404 14.5112C50.9214 14.5112 53.2671 12.0507 53.2671 9.02608C53.2671 6.11523 50.8892 3.74731 47.9666 3.74731H47.9662Z" fill="#0AB9DE"/>
<path d="M33.8495 13.7504C31.3661 13.7504 29.4208 11.7329 29.4208 9.15781C29.4208 6.58355 31.3575 4.48907 33.7377 4.48907C36.2945 4.48907 38.2226 6.42388 38.2226 8.9903C38.2226 11.7485 36.384 13.7504 33.8495 13.7504ZM33.7754 3.74723C32.0298 3.74723 30.3565 4.72445 29.4023 6.26971V0H28.5855L28.5887 9.0817L28.5871 9.10838C28.5863 9.12407 28.5855 9.14055 28.5855 9.15702C28.5855 12.1095 30.9469 14.5107 33.8495 14.5107C36.7314 14.5107 39.0763 12.0502 39.0763 9.0256C39.0763 6.11475 36.6984 3.74684 33.7757 3.74684L33.7754 3.74723Z" fill="#0AB9DE"/>
<path d="M74.0364 9.54798C74.0364 12.3612 72.9358 13.7303 70.6718 13.7318C68.407 13.7303 67.306 12.3615 67.306 9.54798V4.04443H66.4691V9.95597C66.4691 12.7778 67.943 14.4301 70.5195 14.5058V14.5121L70.6545 14.5113L70.6714 14.4007L70.6828 14.5106L70.7094 14.5121L70.8213 14.5082V14.5058C73.3986 14.4301 74.8725 12.7774 74.8725 9.95597V4.04443H74.0356V9.54798H74.0364Z" fill="#4A62AB"/>
<path d="M85.9347 8.65497H77.1474C77.5066 6.10856 79.2415 4.47189 81.5978 4.47189C83.9274 4.47189 85.5802 6.0709 85.9351 8.65497H85.9347ZM86.8249 9.37836C86.7495 6.01048 84.604 3.74731 81.4851 3.74731C78.6237 3.74731 76.2953 6.17486 76.2953 9.15711C76.2953 12.1601 78.6158 14.5124 81.5782 14.5124C83.81 14.5124 85.5583 13.2798 86.4995 11.0409L86.5647 10.8864H85.6544L85.6246 10.9534C84.8301 12.7568 83.3798 13.7501 81.5405 13.7501C79.1053 13.7501 77.3095 12.0048 77.138 9.49174H86.8273L86.8249 9.37797V9.37836Z" fill="#4A62AB"/>
<path d="M88.2247 14.2515H89.0811V0.000488281H88.2247V14.2515Z" fill="#4A62AB"/>
<path d="M91.1447 14.2515H92V0.000488281H91.1447V14.2515Z" fill="#4A62AB"/>
<path d="M59.3118 4.54563C61.7952 4.54563 63.7397 6.56283 63.7397 9.13787C63.7397 11.7121 61.8031 13.8058 59.4232 13.8058C56.8668 13.8058 54.9395 11.8718 54.9395 9.30617C54.9395 6.54753 56.7781 4.54563 59.3118 4.54563ZM64.5766 9.13787C64.5766 6.18622 62.2148 3.78418 59.3118 3.78418C56.4299 3.78418 54.085 6.24428 54.085 9.26929C54.085 12.1805 56.4629 14.5492 59.3867 14.5492C61.1295 14.5492 62.804 13.572 63.7586 12.0275V18.2965H64.5754L64.5731 9.21241L64.5746 9.18377C64.5754 9.16847 64.5762 9.15356 64.5762 9.13748L64.5766 9.13787Z" fill="#4A62AB"/>
<path d="M11.9823 18.1685C8.54429 18.1685 5.74683 15.4738 5.74683 11.9781C5.74683 11.9604 5.74841 11.9428 5.74998 11.9255L5.75155 11.891L5.74643 1.74536C2.30367 3.84259 0 7.62356 0 11.9459C0 18.5451 5.3551 23.8941 11.96 23.8941C13.8425 23.8941 15.6198 23.454 17.2024 22.6811V15.2463C16.0743 17.1082 14.1184 18.1681 11.9823 18.1681V18.1685Z" fill="#0AB9DE"/>
<path d="M23.9192 11.9458C23.9192 5.34972 18.5645 0.000732422 11.9605 0.000732422C10.0787 0.000732422 8.30143 0.440891 6.71606 1.2149V8.55911C7.84729 6.731 9.8295 5.72436 11.8957 5.72436C15.3569 5.72436 18.172 8.37826 18.172 11.8242C18.172 11.8489 18.1704 11.8732 18.1697 11.8984L18.1689 11.914L18.1728 11.9188L18.1681 12.0058L18.172 22.1507C21.6167 20.0538 23.9192 16.2697 23.9192 11.9458Z" fill="#4A62AB"/>
<path d="M17.1798 11.9464C17.1798 14.847 14.8267 17.1993 11.9236 17.1993C9.02097 17.1993 6.66785 14.847 6.66785 11.9464C6.66785 9.04494 9.02097 6.69312 11.9236 6.69312C14.8267 6.69312 17.1798 9.04494 17.1798 11.9464Z" fill="#ABDCEF"/>
<path d="M30.5837 22.6679L30.0412 21.3612L29.489 22.6679H30.5837ZM30.7972 23.1787H29.2758L28.9999 23.8373H28.3817L29.7472 20.7249H30.3655L31.713 23.8373H31.072L30.7968 23.1787H30.7972Z" fill="#007DCC"/>
<path d="M34.8741 22.3523V23.8375H34.2916V22.5214C34.2916 22.1879 34.0914 21.9831 33.7621 21.9831C33.3704 21.9879 33.1388 22.2762 33.1388 22.6677V23.8375H32.5606V21.4586H33.1388V21.9035C33.3079 21.5877 33.6063 21.441 33.9933 21.4363C34.5404 21.4363 34.8741 21.7878 34.8741 22.3523Z" fill="#007DCC"/>
<path d="M39.9043 20.7251V21.2449H38.218V22.0146H39.73V22.5348H38.218V23.317H39.9576V23.8368H37.6218V20.7251H39.9043Z" fill="#007DCC"/>
<path d="M42.047 21.9479C41.6643 21.9479 41.3978 22.2327 41.3978 22.6505C41.3978 23.0769 41.6643 23.3614 42.047 23.3614C42.3229 23.3614 42.5447 23.2684 42.688 23.0817L43.0479 23.3798C42.8387 23.6819 42.4827 23.8596 42.016 23.8596C41.3047 23.8596 40.8145 23.37 40.8145 22.6548C40.8145 21.9303 41.3083 21.4407 42.0246 21.4407C42.4599 21.4407 42.8069 21.6011 43.0208 21.8769L42.6699 22.2104C42.518 22.046 42.3096 21.9479 42.0466 21.9479H42.047Z" fill="#007DCC"/>
<path d="M44.3138 22.6544C44.3138 23.0808 44.5898 23.3743 44.9906 23.3743C45.3811 23.3743 45.657 23.0812 45.657 22.6544C45.657 22.228 45.3811 21.9345 44.9906 21.9345C44.5898 21.9345 44.3138 22.228 44.3138 22.6544ZM46.2399 22.6458C46.2399 23.3703 45.7332 23.8591 44.9909 23.8591C44.2385 23.8591 43.7314 23.3703 43.7314 22.6458C43.7314 21.9251 44.2389 21.4414 44.9909 21.4414C45.7336 21.4414 46.2399 21.9251 46.2399 22.6458Z" fill="#007DCC"/>
<path d="M47.8368 23.8378H47.2583V20.5386H47.8368V23.8378Z" fill="#007DCC"/>
<path d="M50.4723 23.0107V22.7969H49.8714C49.5653 22.7969 49.4228 22.8812 49.4228 23.0903C49.4228 23.29 49.5829 23.4194 49.8455 23.4194C50.1792 23.4194 50.4413 23.2417 50.4723 23.0107ZM50.4775 23.8372V23.5489C50.3122 23.7576 50.0457 23.8643 49.7077 23.8643C49.1963 23.8643 48.8756 23.5489 48.8756 23.126C48.8756 22.6858 49.2002 22.4152 49.7788 22.4101H50.4723V22.3481C50.4723 22.0723 50.2898 21.9079 49.9338 21.9079C49.7121 21.9079 49.471 21.9832 49.2269 22.1303L49.0181 21.7302C49.3604 21.5388 49.6273 21.4368 50.063 21.4368C50.6859 21.4368 51.0368 21.7526 51.0419 22.281L51.0454 23.8372H50.4771H50.4775Z" fill="#007DCC"/>
<path d="M54.1298 22.6417C54.1298 22.2235 53.8539 21.9257 53.4617 21.9257C53.0665 21.9257 52.7909 22.2235 52.7909 22.6417C52.7909 23.0681 53.0665 23.3616 53.4617 23.3616C53.8535 23.3616 54.1298 23.0642 54.1298 22.6417ZM54.7166 22.6589C54.7166 23.3749 54.2762 23.8598 53.5999 23.8598C53.24 23.8598 52.9644 23.7131 52.7909 23.451V23.8374H52.2128V20.5386H52.7909V21.8508C52.9593 21.5884 53.2353 21.442 53.5913 21.442C54.2629 21.442 54.7166 21.9308 54.7166 22.6593V22.6589Z" fill="#007DCC"/>
<path d="M58.3394 21.2187C58.0596 21.2187 57.8771 21.3254 57.8771 21.5208C57.8771 22.1657 59.55 21.8189 59.5453 22.9476C59.5453 23.5305 59.0377 23.8726 58.3532 23.8726C57.8543 23.8726 57.3696 23.6722 57.0363 23.3748L57.2848 22.8679C57.6058 23.161 58.0282 23.334 58.3618 23.334C58.6951 23.334 58.8953 23.201 58.8953 22.9786C58.8953 22.3207 57.2224 22.6938 57.2224 21.5734C57.2224 21.0265 57.6898 20.6758 58.3877 20.6758C58.8018 20.6758 59.2147 20.8092 59.5131 21.0041L59.2729 21.5251C58.9392 21.3199 58.5789 21.2179 58.3387 21.2179L58.3394 21.2187Z" fill="#007DCC"/>
<path d="M60.9461 22.6544C60.9461 23.0808 61.222 23.3743 61.6224 23.3743C62.0134 23.3743 62.2893 23.0812 62.2893 22.6544C62.2893 22.228 62.0134 21.9345 61.6224 21.9345C61.222 21.9345 60.9461 22.228 60.9461 22.6544ZM62.8718 22.6458C62.8718 23.3703 62.3654 23.8591 61.6228 23.8591C60.8707 23.8591 60.3632 23.3703 60.3632 22.6458C60.3632 21.9251 60.8707 21.4414 61.6228 21.4414C62.3654 21.4414 62.8718 21.9251 62.8718 22.6458Z" fill="#007DCC"/>
<path d="M64.4688 23.8378H63.8902V20.5386H64.4688V23.8378Z" fill="#007DCC"/>
<path d="M67.9008 21.4591V23.8369H67.3176V23.3967C67.1531 23.7125 66.8685 23.8592 66.4905 23.8592C65.9571 23.8592 65.6282 23.5081 65.6282 22.9479V21.4587H66.2107V22.7788C66.2107 23.1119 66.4022 23.3124 66.7217 23.3124C67.0958 23.308 67.3176 23.015 67.3176 22.6321V21.4587H67.9008V21.4591Z" fill="#007DCC"/>
<path d="M70.5084 23.6905C70.3255 23.8011 70.1214 23.8643 69.9126 23.8643C69.5256 23.8643 69.2139 23.6415 69.2139 23.1523V21.9785H68.8803L68.8756 21.556H69.2139V20.9028H69.7874V21.556H70.4688V21.9785H69.7874V23.0503C69.7874 23.2766 69.8816 23.3523 70.0374 23.3523C70.1348 23.3523 70.2462 23.3174 70.3758 23.2551L70.5088 23.6905H70.5084Z" fill="#007DCC"/>
<path d="M72.0313 23.8375H71.4531V21.459H72.0313V23.8375ZM72.0713 20.7831C72.0713 20.978 71.9292 21.1252 71.7428 21.1252C71.556 21.1252 71.4135 20.9784 71.4135 20.7831C71.4135 20.5779 71.556 20.4363 71.7428 20.4363C71.9296 20.4363 72.0713 20.5783 72.0713 20.7831Z" fill="#007DCC"/>
<path d="M73.6063 22.6544C73.6063 23.0808 73.8823 23.3743 74.283 23.3743C74.6736 23.3743 74.9495 23.0812 74.9495 22.6544C74.9495 22.228 74.6736 21.9345 74.283 21.9345C73.8823 21.9345 73.6063 22.228 73.6063 22.6544ZM75.532 22.6458C75.532 23.3703 75.0257 23.8591 74.2834 23.8591C73.531 23.8591 73.0234 23.3703 73.0234 22.6458C73.0234 21.9251 73.531 21.4414 74.2834 21.4414C75.0261 21.4414 75.532 21.9251 75.532 22.6458Z" fill="#007DCC"/>
<path d="M78.8397 22.3523V23.8375H78.2572V22.5214C78.2572 22.1879 78.0574 21.9831 77.7277 21.9831C77.3363 21.9879 77.1048 22.2762 77.1048 22.6677V23.8375H76.5266V21.4586H77.1048V21.9035C77.2739 21.5877 77.5722 21.441 77.9593 21.4363C78.506 21.4363 78.8397 21.7878 78.8397 22.3523Z" fill="#007DCC"/>
</svg>
