<svg width="20" height="21" viewBox="0 0 20 21" fill="none" xmlns="http://www.w3.org/2000/svg">
<path d="M16.8755 5.5H13.7499V4.875C13.7493 4.37789 13.5516 3.90131 13.2001 3.5498C12.8486 3.1983 12.372 3.00057 11.8749 3H8.12488C7.62777 3.00057 7.15119 3.1983 6.79968 3.5498C6.44817 3.90131 6.25045 4.37789 6.24988 4.875V5.5H3.12549C2.79408 5.50038 2.47636 5.6322 2.24202 5.86654C2.00768 6.10087 1.87587 6.4186 1.87549 6.75V16.75C1.87587 17.0814 2.00768 17.3991 2.24202 17.6335C2.47636 17.8678 2.79408 17.9996 3.12549 18H16.8755C17.2069 17.9996 17.5246 17.8678 17.759 17.6335C17.9933 17.3991 18.1251 17.0814 18.1255 16.75V6.75C18.1251 6.4186 17.9933 6.10087 17.759 5.86654C17.5246 5.6322 17.2069 5.50038 16.8755 5.5ZM7.49988 4.875C7.50007 4.7093 7.56598 4.55044 7.68315 4.43327C7.80031 4.3161 7.95918 4.25019 8.12488 4.25H11.8749C12.0406 4.25019 12.1994 4.3161 12.3166 4.43327C12.4338 4.55044 12.4997 4.7093 12.4999 4.875V5.5H7.49988V4.875ZM16.8755 6.75L16.8757 10.0005C14.766 11.149 12.402 11.7505 9.99988 11.75C7.59831 11.7505 5.2349 11.1492 3.12549 10.0012V6.75H16.8755ZM8.43738 9.875C8.43739 9.70924 8.50324 9.55028 8.62045 9.43307C8.73765 9.31586 8.89662 9.25001 9.06238 9.25H10.9374C11.1031 9.25 11.2621 9.31585 11.3793 9.43306C11.4965 9.55027 11.5624 9.70924 11.5624 9.875C11.5624 10.0408 11.4965 10.1997 11.3793 10.3169C11.2621 10.4342 11.1031 10.5 10.9374 10.5H9.06238C8.89662 10.5 8.73765 10.4341 8.62045 10.3169C8.50324 10.1997 8.43739 10.0408 8.43738 9.875Z" fill="#3B63A1"/>
</svg>
