<svg width="22" height="22" viewBox="0 0 22 22" fill="none" xmlns="http://www.w3.org/2000/svg">
<path d="M11 10.0833C11.7252 10.0833 12.4341 9.86829 13.0371 9.46539C13.64 9.06249 14.11 8.48984 14.3875 7.81984C14.6651 7.14985 14.7377 6.4126 14.5962 5.70134C14.4547 4.99007 14.1055 4.33674 13.5927 3.82394C13.0799 3.31115 12.4266 2.96193 11.7153 2.82046C11.004 2.67898 10.2668 2.75159 9.59681 3.02911C8.92681 3.30663 8.35416 3.7766 7.95126 4.37958C7.54836 4.98256 7.33331 5.69147 7.33331 6.41667C7.33331 7.38913 7.71962 8.32176 8.40725 9.00939C9.09489 9.69703 10.0275 10.0833 11 10.0833ZM11 4.58333C11.3626 4.58333 11.717 4.69086 12.0185 4.89231C12.32 5.09376 12.555 5.38008 12.6938 5.71508C12.8325 6.05008 12.8688 6.4187 12.7981 6.77433C12.7273 7.12997 12.5527 7.45663 12.2963 7.71303C12.0399 7.96943 11.7133 8.14404 11.3576 8.21477C11.002 8.28551 10.6334 8.24921 10.2984 8.11045C9.9634 7.97169 9.67707 7.7367 9.47562 7.43521C9.27417 7.13372 9.16665 6.77927 9.16665 6.41667C9.16665 5.93044 9.3598 5.46412 9.70362 5.12031C10.0474 4.77649 10.5137 4.58333 11 4.58333Z" fill="white"/>
<path d="M11 11.9167C9.29817 11.9167 7.66607 12.5928 6.46271 13.7961C5.25935 14.9995 4.58331 16.6316 4.58331 18.3334C4.58331 18.5765 4.67989 18.8097 4.8518 18.9816C5.02371 19.1535 5.25686 19.2501 5.49998 19.2501C5.74309 19.2501 5.97625 19.1535 6.14816 18.9816C6.32007 18.8097 6.41665 18.5765 6.41665 18.3334C6.41665 17.1178 6.89953 15.9521 7.75907 15.0925C8.61862 14.233 9.7844 13.7501 11 13.7501C12.2156 13.7501 13.3813 14.233 14.2409 15.0925C15.1004 15.9521 15.5833 17.1178 15.5833 18.3334C15.5833 18.5765 15.6799 18.8097 15.8518 18.9816C16.0237 19.1535 16.2569 19.2501 16.5 19.2501C16.7431 19.2501 16.9763 19.1535 17.1482 18.9816C17.3201 18.8097 17.4166 18.5765 17.4166 18.3334C17.4166 16.6316 16.7406 14.9995 15.5372 13.7961C14.3339 12.5928 12.7018 11.9167 11 11.9167Z" fill="white"/>
</svg>
