<svg width="20" height="22" viewBox="0 0 20 22" fill="none" xmlns="http://www.w3.org/2000/svg">
<path d="M19.7452 8.77537C19.5831 8.60325 19.3633 8.50656 19.134 8.50656C18.9048 8.50656 18.685 8.60325 18.5229 8.77537L9.10774 18.8185C8.7064 19.2448 8.22994 19.583 7.70555 19.8137C7.18115 20.0445 6.6191 20.1633 6.05149 20.1633C4.90514 20.1634 3.80571 19.6798 2.99506 18.8189C2.18441 17.958 1.72895 16.7904 1.72887 15.5728C1.72878 14.3553 2.18409 13.1876 2.99463 12.3266L12.1133 2.60207C12.6009 2.09243 13.2584 1.80807 13.9425 1.81094C14.6266 1.81382 15.2819 2.10368 15.7657 2.61741C16.2495 3.13113 16.5226 3.82709 16.5254 4.55368C16.5283 5.28028 16.2607 5.97864 15.781 6.49665L6.66232 16.2212C6.49787 16.3885 6.27892 16.4819 6.05118 16.4819C5.82344 16.4819 5.6045 16.3885 5.44005 16.2212C5.27799 16.049 5.18696 15.8155 5.18696 15.5721C5.18696 15.3286 5.27799 15.0951 5.44005 14.923L13.5586 6.2607C13.7161 6.08754 13.8032 5.85563 13.8012 5.6149C13.7992 5.37418 13.7083 5.14391 13.5481 4.97369C13.3878 4.80346 13.171 4.70691 12.9443 4.70482C12.7177 4.70273 12.4993 4.79527 12.3363 4.9625L4.21777 13.6248C3.97692 13.8805 3.78586 14.1842 3.65551 14.5184C3.52516 14.8526 3.45807 15.2108 3.45807 15.5725C3.45807 15.9343 3.52516 16.2925 3.65551 16.6267C3.78586 16.9608 3.97692 17.2645 4.21777 17.5203C4.71188 18.0211 5.36863 18.3005 6.05162 18.3005C6.7346 18.3005 7.39135 18.0211 7.88546 17.5203L17.0033 7.79484C17.7968 6.93027 18.2377 5.76846 18.2304 4.56109C18.2231 3.35371 17.7682 2.198 16.9644 1.3443C16.1605 0.490596 15.0723 0.00765533 13.9355 9.02284e-05C12.7987 -0.00747487 11.7049 0.460945 10.891 1.30388L1.77235 11.0284C0.637534 12.2337 -1.69101e-08 13.8684 0 15.573C1.69101e-08 17.2775 0.637534 18.9123 1.77235 20.1176C2.90717 21.3229 4.44631 22 6.05118 22C7.65606 22 9.1952 21.3229 10.33 20.1176L19.7452 10.0772C19.8259 9.99192 19.89 9.89049 19.9338 9.77878C19.9775 9.66707 20 9.54728 20 9.4263C20 9.30532 19.9775 9.18553 19.9338 9.07382C19.89 8.96212 19.8259 8.86069 19.7452 8.77537Z" fill="#CDCEDD"/>
</svg>
