<svg width="80" height="80" viewBox="0 0 80 80" fill="none" xmlns="http://www.w3.org/2000/svg">
<path d="M32.3671 37.6334C31.7394 37.0057 30.8881 36.6531 30.0004 36.6531C29.1127 36.6531 28.2614 37.0057 27.6337 37.6334C27.0061 38.2611 26.6534 39.1124 26.6534 40.0001C26.6534 40.8877 27.0061 41.739 27.6337 42.3667L37.6337 52.3667C37.9452 52.6757 38.3146 52.9201 38.7207 53.086C39.1269 53.2518 39.5617 53.3359 40.0004 53.3334C40.4567 53.3189 40.9052 53.2109 41.3181 53.0159C41.7309 52.8209 42.0993 52.5433 42.4004 52.2001L65.7337 25.5334C66.2725 24.8645 66.5323 24.0134 66.4589 23.1577C66.3855 22.3019 65.9846 21.5075 65.3399 20.9401C64.6951 20.3727 63.8561 20.0761 62.998 20.1121C62.1399 20.1481 61.3287 20.5139 60.7337 21.1334L40.0004 45.1334L32.3671 37.6334Z" fill="#E31E24"/>
<path d="M69.9996 36.6668C69.1155 36.6668 68.2677 37.0179 67.6426 37.6431C67.0175 38.2682 66.6663 39.116 66.6663 40.0001C66.6663 47.0725 63.8568 53.8553 58.8558 58.8563C53.8548 63.8572 47.072 66.6668 39.9996 66.6668C34.7332 66.6644 29.5855 65.1026 25.2055 62.1786C20.8255 59.2545 17.4093 55.0989 15.3879 50.236C13.3664 45.373 12.8301 40.0204 13.8466 34.8531C14.863 29.6857 17.3868 24.935 21.0996 21.2001C23.5686 18.698 26.5119 16.7136 29.7571 15.3628C33.0024 14.012 36.4845 13.3221 39.9996 13.3334C42.1311 13.3468 44.2548 13.5927 46.3329 14.0667C46.7678 14.2013 47.2257 14.2453 47.6782 14.1961C48.1308 14.1469 48.5684 14.0055 48.9643 13.7807C49.3601 13.5558 49.7057 13.2523 49.9797 12.8888C50.2537 12.5253 50.4504 12.1095 50.5575 11.6671C50.6647 11.2247 50.6802 10.765 50.6029 10.3164C50.5256 9.86781 50.3573 9.43978 50.1082 9.05872C49.8592 8.67766 49.5348 8.35165 49.1549 8.10079C48.775 7.84992 48.3478 7.67952 47.8996 7.60008C45.3101 6.99089 42.6598 6.67777 39.9996 6.66675C33.4141 6.70096 26.9862 8.68515 21.5273 12.3689C16.0683 16.0527 11.8228 21.271 9.32666 27.3652C6.83049 33.4594 6.19546 40.1565 7.50172 46.6113C8.80797 53.0661 11.997 58.9893 16.6663 63.6334C22.8552 69.8252 31.2451 73.313 39.9996 73.3334C48.8402 73.3334 57.3186 69.8215 63.5698 63.5703C69.821 57.3191 73.3329 48.8406 73.3329 40.0001C73.3329 39.116 72.9818 38.2682 72.3566 37.6431C71.7315 37.0179 70.8837 36.6668 69.9996 36.6668Z" fill="#E31E24"/>
</svg>
