<svg width="95" height="29" viewBox="0 0 95 29" fill="none" xmlns="http://www.w3.org/2000/svg">
<path fill-rule="evenodd" clip-rule="evenodd" d="M81.0557 12.7481C81.0557 12.0266 81.3399 11.6525 82.1778 11.6525H82.9375V21.2868H80.7661C80.0877 21.2868 79.5177 21.1533 79.1391 20.5592L75.7219 15.2306V21.2868H73.8393V11.6525H74.8012C76.1718 11.6525 77.1157 12.1681 77.8506 13.3495L81.0557 18.5026V12.7481ZM65.6702 11.6525V21.2868H63.7068V15.1822C63.1623 16.0505 62.6201 16.9169 62.0767 17.7864C61.5135 18.686 60.8248 18.9564 59.7622 18.9564H59.3974L57.0578 15.1822V21.2868H55.0901V12.475C55.0901 11.9553 55.3419 11.6525 55.9779 11.6525H57.7239L60.3269 15.9022C60.9905 14.8176 61.6521 13.7316 62.3148 12.6493C62.7254 11.9785 63.3015 11.6521 64.0856 11.6521H65.6706L65.6702 11.6525ZM51.0498 12.0628L48.34 15.6715L45.9716 12.2375C45.6809 11.8191 45.3677 11.6571 44.7461 11.6571H42.7216L46.5898 17.1419V21.2868H49.3782V17.1107L53.5566 11.6571H52.006C51.5843 11.6571 51.3085 11.7181 51.0498 12.0628ZM35.4976 19.8792H36.9597C40.8638 19.8792 40.8775 13.0413 36.9597 13.0562H35.4976V19.8792ZM33.7939 11.6525H37.7026C43.9357 11.6525 44.1001 21.2868 37.7442 21.2868H33.0022V12.3915C33.0022 11.9148 33.3532 11.6529 33.7939 11.6529V11.6525ZM69.5537 11.6525H71.2592V21.2868H68.6925V12.4953C68.6925 11.9987 68.9756 11.6525 69.5537 11.6525ZM88.0553 19.8792H89.5163C93.4227 19.8792 93.4349 13.0413 89.5163 13.0562H88.0553V19.8792ZM86.3494 11.6525H90.2588C96.4919 11.6525 96.6537 21.2868 90.3019 21.2868H85.5588V12.3915C85.5588 11.9148 85.9098 11.6529 86.3494 11.6529V11.6525Z" fill="#4C4948"/>
<path fill-rule="evenodd" clip-rule="evenodd" d="M12.1894 3.14647V0.259693C12.1894 0.11707 12.3092 0 12.4565 0H15.3399C15.4848 0 15.6047 0.117833 15.6047 0.259693V3.14647C15.6047 3.28947 15.4845 3.40654 15.3399 3.40654H12.4565C12.3092 3.40654 12.1894 3.28947 12.1894 3.14647Z" fill="#E31E24"/>
<path fill-rule="evenodd" clip-rule="evenodd" d="M17.5729 8.12392H14.7543C14.6467 8.12392 14.5555 8.02744 14.5555 7.90808V5.71687C14.5555 5.59827 14.6456 5.50103 14.7543 5.50103H17.5729V4.04963C17.5729 3.89252 17.6919 3.76172 17.8392 3.76172H20.723C20.8703 3.76172 20.9893 3.89252 20.9893 4.04963V5.50103H23.4061C23.5152 5.50103 23.6045 5.60018 23.6045 5.71687V7.90808C23.6045 8.02553 23.5141 8.12392 23.4061 8.12392H20.9893V9.7065C20.9893 9.86361 20.8691 9.99441 20.723 9.99441H17.8392C17.693 9.99441 17.5729 9.86361 17.5729 9.7065V8.12392Z" fill="#E31E24"/>
<path fill-rule="evenodd" clip-rule="evenodd" d="M19.2779 25.4936V17.8133C19.2779 17.6764 19.3988 17.5654 19.5442 17.5654H22.428C22.5741 17.5654 22.6943 17.6764 22.6943 17.8133V25.494C22.6943 25.6213 22.5871 25.7277 22.452 25.7388L19.5442 25.7399C19.3988 25.7399 19.2779 25.6286 19.2779 25.4932V25.4936Z" fill="#E31E24"/>
<path fill-rule="evenodd" clip-rule="evenodd" d="M9.20665 21.2052V18.985C9.20665 18.8641 9.28143 18.7665 9.373 18.7665H12.1897V16.1382C12.1897 15.9983 12.3095 15.8843 12.4568 15.8843H15.3402C15.4852 15.8843 15.605 15.9987 15.605 16.1382V18.7665H18.4216C18.5143 18.7665 18.588 18.8656 18.588 18.985V21.2052C18.588 21.3245 18.5128 21.4241 18.4216 21.4241H15.605L15.6054 28.6399C15.6054 28.7703 15.4977 28.8797 15.3642 28.8912C15.3562 28.8919 15.3486 28.8923 15.3406 28.8908L12.4564 28.8923C12.4483 28.8923 12.4403 28.8919 12.4327 28.8912C12.2973 28.8793 12.1897 28.7703 12.1897 28.6402V21.4237H9.373C9.28257 21.4237 9.20665 21.3253 9.20665 21.2048V21.2052Z" fill="#E31E24"/>
<path fill-rule="evenodd" clip-rule="evenodd" d="M6.79261 8.12392H4.3915C4.28352 8.12392 4.19269 8.02744 4.19269 7.90808V5.71687C4.19269 5.59827 4.28199 5.50103 4.3915 5.50103H6.79261V4.04963C6.79261 3.89252 6.91243 3.76172 7.0578 3.76172H9.9416C10.0877 3.76172 10.2079 3.89252 10.2079 4.04963V5.50103H13.0433C13.1513 5.50103 13.2401 5.60018 13.2401 5.71687V7.90808C13.2401 8.02553 13.1501 8.12392 13.0433 8.12392H10.2079V9.7065C10.2079 9.86361 10.0877 9.99441 9.9416 9.99441H7.0578C6.91243 9.99441 6.79261 9.86361 6.79261 9.7065V8.12392Z" fill="#E31E24"/>
<path fill-rule="evenodd" clip-rule="evenodd" d="M5.22921 16.9229H2.34541C2.19927 16.9229 2.07908 16.805 2.07908 16.6605V14.5685H0.192305C0.0877592 14.5685 0 14.4712 0 14.3519V12.1614C0 12.042 0.0866145 11.9444 0.192305 11.9444H2.07908V10.0152C2.07908 9.87296 2.19927 9.75513 2.34541 9.75513H5.22921C5.3742 9.75513 5.49439 9.87296 5.49439 10.0152V11.9444H13.0484C13.1545 11.9444 13.2403 12.0436 13.2403 12.1614V14.3519C13.2403 14.4701 13.153 14.5685 13.0484 14.5685H5.49439V16.6605C5.49439 16.805 5.3742 16.9229 5.22921 16.9229Z" fill="#E31E24"/>
<path fill-rule="evenodd" clip-rule="evenodd" d="M22.5668 16.9229H25.4509C25.5967 16.9229 25.7169 16.805 25.7169 16.6605V14.5685H27.6037C27.7082 14.5685 27.796 14.4712 27.796 14.3519V12.1614C27.796 12.042 27.7094 11.9444 27.6037 11.9444H25.7169V10.0152C25.7169 9.87296 25.5967 9.75513 25.4509 9.75513H22.5668C22.4218 9.75513 22.3016 9.87296 22.3016 10.0152V11.9444H14.7476C14.6415 11.9444 14.5556 12.0436 14.5556 12.1614V14.3519C14.5556 14.4701 14.643 14.5685 14.7476 14.5685H22.3016V16.6605C22.3016 16.805 22.4218 16.9229 22.5668 16.9229Z" fill="#E31E24"/>
<path fill-rule="evenodd" clip-rule="evenodd" d="M5.10757 25.4936V17.8133C5.10757 17.6764 5.22852 17.5654 5.37389 17.5654H8.25768C8.40381 17.5654 8.524 17.6764 8.524 17.8133V25.494C8.524 25.6213 8.4168 25.7277 8.28173 25.7388L5.37389 25.7399C5.22852 25.7399 5.10757 25.6286 5.10757 25.4932V25.4936Z" fill="#E31E24"/>
</svg>
