<svg width="20" height="20" viewBox="0 0 20 20" fill="none" xmlns="http://www.w3.org/2000/svg">
<path d="M18.2247 9.58331C17.6914 8.65831 14.7581 4.01664 9.77473 4.16664C5.1664 4.28331 2.49973 8.33331 1.77473 9.58331C1.70159 9.70999 1.66309 9.85369 1.66309 9.99998C1.66309 10.1463 1.70159 10.29 1.77473 10.4166C2.29973 11.325 5.10807 15.8333 10.0164 15.8333H10.2247C14.8331 15.7166 17.5081 11.6666 18.2247 10.4166C18.2979 10.29 18.3364 10.1463 18.3364 9.99998C18.3364 9.85369 18.2979 9.70999 18.2247 9.58331ZM10.1831 14.1666C6.5914 14.25 4.24973 11.175 3.5164 9.99998C4.34973 8.65831 6.52473 5.91664 9.85806 5.83331C13.4331 5.74164 15.7831 8.82498 16.5247 9.99998C15.6664 11.3416 13.5164 14.0833 10.1831 14.1666Z" fill="white"/>
<path d="M9.99968 7.08337C9.42281 7.08337 8.85891 7.25443 8.37926 7.57492C7.89962 7.89541 7.52578 8.35093 7.30503 8.88388C7.08427 9.41683 7.02651 10.0033 7.13905 10.5691C7.25159 11.1348 7.52938 11.6545 7.93728 12.0624C8.34518 12.4703 8.86488 12.7481 9.43066 12.8607C9.99644 12.9732 10.5829 12.9154 11.1158 12.6947C11.6488 12.4739 12.1043 12.1001 12.4248 11.6205C12.7453 11.1408 12.9163 10.5769 12.9163 10C12.9163 9.22649 12.6091 8.48463 12.0621 7.93765C11.5151 7.39067 10.7732 7.08337 9.99968 7.08337ZM9.99968 11.25C9.75245 11.25 9.51078 11.1767 9.30521 11.0394C9.09965 10.902 8.93944 10.7068 8.84483 10.4784C8.75022 10.25 8.72546 9.99865 8.77369 9.75618C8.82193 9.5137 8.94098 9.29097 9.11579 9.11616C9.29061 8.94134 9.51334 8.82229 9.75581 8.77406C9.99829 8.72583 10.2496 8.75058 10.478 8.84519C10.7064 8.9398 10.9017 9.10002 11.039 9.30558C11.1764 9.51114 11.2497 9.75281 11.2497 10C11.2497 10.3316 11.118 10.6495 10.8836 10.8839C10.6491 11.1183 10.3312 11.25 9.99968 11.25Z" fill="white"/>
</svg>
