<svg width="182" height="27" viewBox="0 0 182 27" fill="none" xmlns="http://www.w3.org/2000/svg">
<path d="M74.1507 16.0625H70.1174L75.5985 1.94722H79.7357L85.2168 16.0625H81.1837L80.2526 13.5419H75.0817L74.1507 16.0625ZM76.0124 10.9206H79.322L77.667 6.18159L76.0124 10.9206ZM89.9744 13.2394H97.5244V16.0625H86.2515V1.94722H89.9744V13.2394ZM98.9722 1.94722H107.246C108.597 1.94722 109.59 2.24615 110.224 2.84452C110.859 3.44263 111.176 4.35343 111.176 5.57679C111.176 6.38345 110.997 7.03865 110.638 7.5429C110.28 8.04716 109.838 8.39982 109.315 8.60142C109.618 8.68229 109.921 8.80996 110.224 8.98469C110.528 9.15955 110.793 9.39458 111.021 9.69055C111.248 9.98613 111.434 10.3456 111.579 10.7694C111.724 11.1926 111.797 11.6802 111.797 12.2312C111.797 13.5486 111.479 14.5166 110.845 15.1349C110.211 15.7533 109.218 16.0625 107.867 16.0625H98.9722V1.94722ZM108.073 11.6263C108.073 10.8197 107.66 10.4163 106.832 10.4163H102.695V13.2394H106.832C107.66 13.2394 108.073 12.836 108.073 12.0298V11.6263ZM107.453 5.98012C107.453 5.17333 107.039 4.77 106.212 4.77H102.695V7.59317H106.212C107.039 7.59317 107.453 7.19023 107.453 6.38345V5.98012ZM116.244 16.0625H112.21L117.692 1.94722H121.829L127.31 16.0625H123.277L122.346 13.5419H117.175L116.244 16.0625ZM118.105 10.9206H121.415L119.76 6.18159L118.105 10.9206ZM133.93 16.0625H130.206V4.77H125.862V1.94722H138.272V4.77H133.93V16.0625ZM139.721 1.94722H148.408C149.856 1.94722 150.907 2.26646 151.562 2.90482C152.218 3.54356 152.545 4.56853 152.545 5.98012V7.79503C152.545 8.91063 152.355 9.77797 151.977 10.3963C151.597 11.0147 150.994 11.4245 150.166 11.6263L152.752 16.0625H148.718L146.34 11.8279H143.444V16.0625H139.721V1.94722ZM148.822 5.98012C148.822 5.17333 148.408 4.77 147.581 4.77H143.444V9.00475H147.581C148.408 9.00475 148.822 8.60142 148.822 7.79503V5.98012ZM163.921 5.77865C163.921 4.97186 163.508 4.56853 162.68 4.56853H159.164C158.336 4.56853 157.923 4.97186 157.923 5.77865V12.2312C157.923 13.0379 158.336 13.4412 159.164 13.4412H162.68C163.508 13.4412 163.921 13.0379 163.921 12.2312V5.77865ZM167.644 12.2312C167.644 13.6428 167.317 14.6678 166.662 15.3065C166.008 15.9449 164.955 16.264 163.508 16.264H158.336C156.889 16.264 155.837 15.9449 155.183 15.3065C154.527 14.6678 154.2 13.6428 154.2 12.2312V5.77865C154.2 4.36706 154.527 3.3417 155.183 2.70335C155.837 2.0646 156.889 1.74536 158.336 1.74536H163.508C164.955 1.74536 166.008 2.0646 166.662 2.70335C167.317 3.3417 167.644 4.36706 167.644 5.77865V12.2312ZM172.816 6.38345C172.816 7.19023 173.23 7.59317 174.057 7.59317H177.78C179.131 7.59317 180.125 7.89557 180.759 8.50396C181.393 9.11249 181.71 10.0667 181.71 11.3607V12.3557C181.71 13.6495 181.393 14.6007 180.759 15.2088C180.125 15.8172 179.131 16.1232 177.78 16.1232C177.367 16.1232 176.929 16.1232 176.466 16.1232C176.004 16.1232 175.536 16.1232 175.06 16.1232C174.584 16.1232 174.109 16.1232 173.633 16.1232C173.157 16.1232 172.705 16.1232 172.279 16.1232C171.271 16.1232 170.271 16.0358 169.278 15.8611V13.2797C170.286 13.2797 171.265 13.2797 172.215 13.2797C173.029 13.2797 173.871 13.2797 174.74 13.2797C175.609 13.2797 176.346 13.2797 176.953 13.2797C177.269 13.2797 177.521 13.1959 177.707 13.0244C177.894 12.8529 177.987 12.6211 177.987 12.3286V10.6182H173.23C171.782 10.6182 170.73 10.2986 170.075 9.6602C169.421 9.02146 169.092 7.9965 169.092 6.58492V5.98012C169.092 4.56853 169.421 3.54356 170.075 2.90482C170.73 2.26646 171.782 1.94722 173.23 1.94722H180.49V4.77H174.057C173.23 4.77 172.816 5.17333 172.816 5.98012V6.38345Z" fill="url(#paint0_linear)"/>
<path d="M73.6914 26.0959H72.7885V24.2635H71.0281V26.0959H70.1252V21.8241H71.0281V23.5544H72.7885V21.8241H73.6914V26.0959ZM82.1043 24.2393H80.3713V25.3868H82.4051V26.0959H79.4684V21.8241H82.3988V22.5391H80.3713V23.5544H82.1043V24.2393ZM90.3978 25.2186H88.8147L88.5138 26.0959H87.5544L89.1846 21.8241H90.0218L91.6619 26.0959H90.7017L90.3978 25.2186ZM89.0581 24.5036H90.1541L89.6035 22.9034L89.0581 24.5036ZM97.9627 25.3868H99.8795V26.0959H97.0601V21.8241H97.9627V25.3868ZM108.067 22.5391H106.725V26.0959H105.822V22.5391H104.498V21.8241H108.067V22.5391ZM117.137 26.0959H116.234V24.2635H114.474V26.0959H113.571V21.8241H114.474V23.5544H116.234V21.8241H117.137V26.0959ZM130.542 24.6748C130.508 25.1345 130.335 25.4961 130.021 25.7604C129.707 26.0239 129.293 26.1558 128.78 26.1558C128.218 26.1558 127.776 25.9717 127.454 25.6023C127.132 25.2337 126.971 24.7271 126.971 24.0832V23.8217C126.971 23.4113 127.045 23.0486 127.194 22.7353C127.342 22.4231 127.554 22.1825 127.83 22.0153C128.106 21.8482 128.426 21.7642 128.791 21.7642C129.297 21.7642 129.704 21.8961 130.013 22.1595C130.323 22.4239 130.501 22.7943 130.548 23.2719H129.645C129.624 22.9957 129.545 22.7954 129.409 22.6712C129.275 22.547 129.068 22.4851 128.791 22.4851C128.49 22.4851 128.265 22.5901 128.116 22.8004C127.966 23.0105 127.89 23.3372 127.886 23.7798V24.1021C127.886 24.5635 127.957 24.9012 128.101 25.1145C128.245 25.3275 128.47 25.4349 128.78 25.4349C129.058 25.4349 129.267 25.3729 129.404 25.2496C129.541 25.1257 129.62 24.9342 129.64 24.6748H130.542ZM138.598 25.2186H137.016L136.715 26.0959H135.755L137.385 21.8241H138.222L139.863 26.0959H138.903L138.598 25.2186ZM137.26 24.5036H138.356L137.804 22.9034L137.26 24.5036ZM146.882 24.5337H146.163V26.0959H145.26V21.8241H146.887C147.405 21.8241 147.805 21.9362 148.086 22.1616C148.367 22.3867 148.507 22.7043 148.507 23.1158C148.507 23.4072 148.442 23.6506 148.313 23.8447C148.184 24.0401 147.988 24.1953 147.725 24.3104L148.673 26.0549V26.0959H147.704L146.882 24.5337ZM146.163 23.8187H146.891C147.118 23.8187 147.293 23.7624 147.417 23.6506C147.541 23.5384 147.605 23.3833 147.605 23.1858C147.605 22.9846 147.545 22.8273 147.428 22.7122C147.311 22.5972 147.131 22.5391 146.887 22.5391H146.163V23.8187ZM156.819 24.2393H155.086V25.3868H157.12V26.0959H154.183V21.8241H157.113V22.5391H155.086V23.5544H156.819V24.2393Z" fill="#333A76"/>
<path d="M2.36462 21.1638C15.3306 22.0327 19.2322 9.86456 25.7656 5.42023C25.0402 4.96333 22.8009 4.16921 21.7271 4.21903C14.4203 7.76746 10.1872 19.4827 2.36462 21.1638Z" fill="#E31E24"/>
<path d="M2.36462 21.1638C15.3306 22.0327 19.2322 9.86449 25.7656 5.42016C25.4474 5.16179 23.0045 4.16914 21.7204 4.22227C14.4177 7.77466 10.1847 19.4831 2.36462 21.1638Z" fill="url(#paint1_linear)"/>
<path fill-rule="evenodd" clip-rule="evenodd" d="M58.2657 0.544429C35.6923 -3.19558 34.5954 13.2715 22.6908 21.3155C24.0682 22.2772 25.5814 22.8731 27.3551 22.891C38.421 19.034 42.8655 0.6208 58.2657 0.544429Z" fill="#3D72A6"/>
<path fill-rule="evenodd" clip-rule="evenodd" d="M58.2657 0.544429C35.6923 -3.19558 34.5954 13.2715 22.6908 21.3155C24.0682 22.2772 25.5814 22.8731 27.3551 22.891C38.421 19.034 42.8655 0.6208 58.2657 0.544429Z" fill="#3D72A6"/>
<path fill-rule="evenodd" clip-rule="evenodd" d="M27.3537 22.8902C25.5799 22.8723 24.0667 22.2764 22.6893 21.3147C21.7715 21.9347 20.7895 22.5049 19.7285 23.0117C20.6975 23.3721 21.7271 23.5781 22.8319 23.5893C24.4671 23.6296 25.9625 23.3747 27.3537 22.8902Z" fill="#26438A"/>
<g filter="url(#filter0_b)">
<path fill-rule="evenodd" clip-rule="evenodd" d="M63.2143 26.0156C40.9499 29.8797 38.4523 13.4249 25.8457 5.4657C25.1474 5.02521 22.8 4.15106 21.7197 4.22036C24.1602 2.8242 27.7872 2.98286 30.3775 3.86537C41.7389 7.73819 47.8001 26.0264 63.2143 26.0156Z" fill="#9D9E9E" fill-opacity="0.5"/>
</g>
<path fill-rule="evenodd" clip-rule="evenodd" d="M63.2143 26.0156C40.9499 29.8797 38.4523 13.4249 25.8457 5.4657C25.1474 5.02521 22.8 4.15106 21.7197 4.22036C24.1602 2.8242 27.7872 2.98286 30.3775 3.86537C41.7389 7.73819 47.8001 26.0264 63.2143 26.0156Z" fill="url(#paint2_linear)" fill-opacity="0.5"/>
<g filter="url(#filter1_b)">
<path fill-rule="evenodd" clip-rule="evenodd" d="M22.6896 21.3152C16.3358 16.8505 12.841 4.59432 0 5.533C8.04228 7.2727 11.9451 20.1178 19.7285 23.0124H19.7289C20.698 23.3728 21.7275 23.5788 22.8324 23.5901C24.4673 23.6305 25.963 23.3749 27.3538 22.8907C25.5805 22.8728 24.0674 22.2767 22.6896 21.3155L22.6891 21.3158L22.6896 21.3152Z" fill="#26438A" fill-opacity="0.9"/>
</g>
<path fill-rule="evenodd" clip-rule="evenodd" d="M22.6896 21.3152C16.3358 16.8505 12.841 4.59432 0 5.533C8.04228 7.2727 11.9451 20.1178 19.7285 23.0124H19.7289C20.698 23.3728 21.7275 23.5788 22.8324 23.5901C24.4673 23.6305 25.963 23.3749 27.3538 22.8907C25.5805 22.8728 24.0674 22.2767 22.6896 21.3155L22.6891 21.3158L22.6896 21.3152Z" fill="url(#paint3_linear)"/>
<mask id="mask0" mask-type="alpha" maskUnits="userSpaceOnUse" x="70" y="1" width="112" height="16">
<path d="M74.1507 16.0625H70.1174L75.5985 1.94722H79.7357L85.2168 16.0625H81.1837L80.2526 13.5419H75.0817L74.1507 16.0625ZM76.0124 10.9206H79.322L77.667 6.18159L76.0124 10.9206ZM89.9744 13.2394H97.5244V16.0625H86.2515V1.94722H89.9744V13.2394ZM98.9722 1.94722H107.246C108.597 1.94722 109.59 2.24615 110.224 2.84452C110.859 3.44263 111.176 4.35343 111.176 5.57679C111.176 6.38345 110.997 7.03865 110.638 7.5429C110.28 8.04716 109.838 8.39982 109.315 8.60142C109.618 8.68229 109.921 8.80996 110.224 8.98469C110.528 9.15955 110.793 9.39458 111.021 9.69055C111.248 9.98613 111.434 10.3456 111.579 10.7694C111.724 11.1926 111.797 11.6802 111.797 12.2312C111.797 13.5486 111.479 14.5166 110.845 15.1349C110.211 15.7533 109.218 16.0625 107.867 16.0625H98.9722V1.94722ZM108.073 11.6263C108.073 10.8197 107.66 10.4163 106.832 10.4163H102.695V13.2394H106.832C107.66 13.2394 108.073 12.836 108.073 12.0298V11.6263ZM107.453 5.98012C107.453 5.17333 107.039 4.77 106.212 4.77H102.695V7.59317H106.212C107.039 7.59317 107.453 7.19023 107.453 6.38345V5.98012ZM116.244 16.0625H112.21L117.692 1.94722H121.829L127.31 16.0625H123.277L122.346 13.5419H117.175L116.244 16.0625ZM118.105 10.9206H121.415L119.76 6.18159L118.105 10.9206ZM133.93 16.0625H130.206V4.77H125.862V1.94722H138.272V4.77H133.93V16.0625ZM139.721 1.94722H148.408C149.856 1.94722 150.907 2.26646 151.562 2.90482C152.218 3.54356 152.545 4.56853 152.545 5.98012V7.79503C152.545 8.91063 152.355 9.77797 151.977 10.3963C151.597 11.0147 150.994 11.4245 150.166 11.6263L152.752 16.0625H148.718L146.34 11.8279H143.444V16.0625H139.721V1.94722ZM148.822 5.98012C148.822 5.17333 148.408 4.77 147.581 4.77H143.444V9.00475H147.581C148.408 9.00475 148.822 8.60142 148.822 7.79503V5.98012ZM163.921 5.77865C163.921 4.97186 163.508 4.56853 162.68 4.56853H159.164C158.336 4.56853 157.923 4.97186 157.923 5.77865V12.2312C157.923 13.0379 158.336 13.4412 159.164 13.4412H162.68C163.508 13.4412 163.921 13.0379 163.921 12.2312V5.77865ZM167.644 12.2312C167.644 13.6428 167.317 14.6678 166.662 15.3065C166.008 15.9449 164.955 16.264 163.508 16.264H158.336C156.889 16.264 155.837 15.9449 155.183 15.3065C154.527 14.6678 154.2 13.6428 154.2 12.2312V5.77865C154.2 4.36706 154.527 3.3417 155.183 2.70335C155.837 2.0646 156.889 1.74536 158.336 1.74536H163.508C164.955 1.74536 166.008 2.0646 166.662 2.70335C167.317 3.3417 167.644 4.36706 167.644 5.77865V12.2312ZM172.816 6.38345C172.816 7.19023 173.23 7.59317 174.057 7.59317H177.78C179.131 7.59317 180.125 7.89557 180.759 8.50396C181.393 9.11249 181.71 10.0667 181.71 11.3607V12.3557C181.71 13.6495 181.393 14.6007 180.759 15.2088C180.125 15.8172 179.131 16.1232 177.78 16.1232C177.367 16.1232 176.929 16.1232 176.466 16.1232C176.004 16.1232 175.536 16.1232 175.06 16.1232C174.584 16.1232 174.109 16.1232 173.633 16.1232C173.157 16.1232 172.705 16.1232 172.279 16.1232C171.271 16.1232 170.271 16.0358 169.278 15.8611V13.2797C170.286 13.2797 171.265 13.2797 172.215 13.2797C173.029 13.2797 173.871 13.2797 174.74 13.2797C175.609 13.2797 176.346 13.2797 176.953 13.2797C177.269 13.2797 177.521 13.1959 177.707 13.0244C177.894 12.8529 177.987 12.6211 177.987 12.3286V10.6182H173.23C171.782 10.6182 170.73 10.2986 170.075 9.6602C169.421 9.02146 169.092 7.9965 169.092 6.58492V5.98012C169.092 4.56853 169.421 3.54356 170.075 2.90482C170.73 2.26646 171.782 1.94722 173.23 1.94722H180.49V4.77H174.057C173.23 4.77 172.816 5.17333 172.816 5.98012V6.38345Z" fill="url(#paint4_linear)"/>
</mask>
<g mask="url(#mask0)">
<path fill-rule="evenodd" clip-rule="evenodd" d="M124.238 27.3369C161.794 27.3369 192.238 23.3732 192.238 18.4836C192.238 13.5941 161.794 9.63037 124.238 9.63037C86.6833 9.63037 56.2388 13.5941 56.2388 18.4836C56.2388 23.3732 86.6833 27.3369 124.238 27.3369Z" fill="#030F58"/>
</g>
<defs>
<filter id="filter0_b" x="19.7197" y="1.18677" width="45.4946" height="27.4077" filterUnits="userSpaceOnUse" color-interpolation-filters="sRGB">
<feFlood flood-opacity="0" result="BackgroundImageFix"/>
<feGaussianBlur in="BackgroundImage" stdDeviation="1"/>
<feComposite in2="SourceAlpha" operator="in" result="effect1_backgroundBlur"/>
<feBlend mode="normal" in="SourceGraphic" in2="effect1_backgroundBlur" result="shape"/>
</filter>
<filter id="filter1_b" x="-2" y="3.48193" width="31.3538" height="22.1123" filterUnits="userSpaceOnUse" color-interpolation-filters="sRGB">
<feFlood flood-opacity="0" result="BackgroundImageFix"/>
<feGaussianBlur in="BackgroundImage" stdDeviation="1"/>
<feComposite in2="SourceAlpha" operator="in" result="effect1_backgroundBlur"/>
<feBlend mode="normal" in="SourceGraphic" in2="effect1_backgroundBlur" result="shape"/>
</filter>
<linearGradient id="paint0_linear" x1="205.08" y1="7.07154" x2="72.6841" y2="12.5651" gradientUnits="userSpaceOnUse">
<stop stop-color="#39559B"/>
<stop offset="0.49238" stop-color="#3D72A6"/>
<stop offset="0.821107" stop-color="#1D3F96"/>
</linearGradient>
<linearGradient id="paint1_linear" x1="24.3985" y1="4.91329" x2="16.2887" y2="14.0991" gradientUnits="userSpaceOnUse">
<stop stop-color="#313131" stop-opacity="0.6"/>
<stop offset="1" stop-color="#707070" stop-opacity="0"/>
</linearGradient>
<linearGradient id="paint2_linear" x1="54.7319" y1="26.3572" x2="41.1644" y2="15.0911" gradientUnits="userSpaceOnUse">
<stop stop-color="#555555"/>
<stop offset="1" stop-color="#9D9E9E" stop-opacity="0"/>
</linearGradient>
<linearGradient id="paint3_linear" x1="23.0797" y1="23.1429" x2="8.92469" y2="9.2832" gradientUnits="userSpaceOnUse">
<stop stop-color="#1B1B1B" stop-opacity="0.29"/>
<stop offset="1" stop-color="#26438A" stop-opacity="0"/>
</linearGradient>
<linearGradient id="paint4_linear" x1="212.954" y1="7.95805" x2="108.145" y2="9.05449" gradientUnits="userSpaceOnUse">
<stop stop-color="#26438A"/>
<stop offset="0.579154" stop-color="#3D72A6"/>
<stop offset="1" stop-color="#26438A"/>
</linearGradient>
</defs>
</svg>
