<svg width="40" height="40" viewBox="0 0 40 40" fill="none" xmlns="http://www.w3.org/2000/svg">
<path opacity="0.4" d="M28.3333 23.2837C28.3333 25.6087 26.4666 27.492 24.1416 27.5003H24.1333H15.875C13.5583 27.5003 11.6666 25.6253 11.6666 23.3003V23.292C11.6666 23.292 11.6716 19.6037 11.6783 17.7487C11.6791 17.4003 12.0791 17.2053 12.3516 17.422C14.3316 18.9928 17.8725 21.857 17.9166 21.8945C18.5083 22.3687 19.2583 22.6362 20.025 22.6362C20.7916 22.6362 21.5416 22.3687 22.1333 21.8853C22.1775 21.8562 25.6391 19.0778 27.6491 17.4812C27.9225 17.2637 28.3241 17.4587 28.325 17.8062C28.3333 19.647 28.3333 23.2837 28.3333 23.2837Z" fill="#3B63A1"/>
<path d="M27.8967 14.7283C27.1751 13.3683 25.7551 12.5 24.1917 12.5H15.8751C14.3117 12.5 12.8917 13.3683 12.1701 14.7283C12.0084 15.0325 12.0851 15.4117 12.3542 15.6267L18.5417 20.5758C18.9751 20.9258 19.5001 21.1 20.0251 21.1C20.0284 21.1 20.0309 21.1 20.0334 21.1C20.0359 21.1 20.0392 21.1 20.0417 21.1C20.5667 21.1 21.0917 20.9258 21.5251 20.5758L27.7126 15.6267C27.9817 15.4117 28.0584 15.0325 27.8967 14.7283Z" fill="#3B63A1"/>
<circle cx="20" cy="20" r="19" stroke="#EAEAEA" stroke-width="2"/>
</svg>
