<svg width="60" height="60" viewBox="0 0 60 60" fill="none" xmlns="http://www.w3.org/2000/svg">
<path fill-rule="evenodd" clip-rule="evenodd" d="M21.3291 7.34193C26.7912 4.16819 33.5051 4.22366 38.916 7.48724C44.2736 10.8173 47.5299 16.7604 47.4996 23.1536C47.3749 29.5048 43.8832 35.475 39.5187 40.0902C36.9996 42.766 34.1815 45.1321 31.1221 47.1401C30.807 47.3223 30.4619 47.4443 30.1037 47.5C29.759 47.4853 29.4233 47.3835 29.1269 47.2036C24.4561 44.1864 20.3583 40.3351 17.0308 35.8349C14.2465 32.0784 12.6646 27.54 12.5 22.836C12.4964 16.4306 15.8669 10.5157 21.3291 7.34193ZM24.4854 25.4869C25.4042 27.7521 27.573 29.2296 29.979 29.2296C31.5553 29.2409 33.0705 28.6096 34.187 27.4762C35.3036 26.3428 35.9287 24.8016 35.9231 23.1959C35.9315 20.7451 34.4886 18.5308 32.2682 17.5869C30.0477 16.6431 27.4876 17.1559 25.7833 18.8859C24.079 20.6159 23.5666 23.2218 24.4854 25.4869Z" fill="#E31E24"/>
<ellipse opacity="0.4" cx="30" cy="52.5" rx="12.5" ry="2.5" fill="black"/>
</svg>
