<svg width="40" height="40" viewBox="0 0 40 40" fill="none" xmlns="http://www.w3.org/2000/svg">
<path fill-rule="evenodd" clip-rule="evenodd" d="M17.1096 12.4476C18.9304 11.3897 21.1683 11.4082 22.9719 12.4961C24.7578 13.6061 25.8433 15.5871 25.8332 17.7182C25.7916 19.8353 24.6277 21.8253 23.1729 23.3637C22.3332 24.2557 21.3938 25.0444 20.374 25.7137C20.269 25.7744 20.1539 25.8151 20.0345 25.8337C19.9196 25.8288 19.8077 25.7948 19.7089 25.7349C18.152 24.7291 16.7861 23.4454 15.6769 21.9453C14.7488 20.6931 14.2215 19.1803 14.1666 17.6123C14.1654 15.4772 15.2889 13.5055 17.1096 12.4476ZM18.1618 18.496C18.468 19.251 19.1909 19.7435 19.993 19.7436C20.5184 19.7473 21.0234 19.5369 21.3956 19.1591C21.7678 18.7813 21.9762 18.2675 21.9743 17.7323C21.9771 16.9154 21.4962 16.1773 20.756 15.8627C20.0159 15.548 19.1625 15.719 18.5944 16.2956C18.0263 16.8723 17.8555 17.7409 18.1618 18.496Z" fill="#3B63A1"/>
<ellipse opacity="0.4" cx="20" cy="27.5003" rx="4.16667" ry="0.833334" fill="#3B63A1"/>
<circle cx="20" cy="20" r="19" stroke="#EAEAEA" stroke-width="2"/>
</svg>
