<svg width="78" height="15" viewBox="0 0 78 15" fill="none" xmlns="http://www.w3.org/2000/svg">
<g clip-path="url(#clip0)">
<path d="M15.3195 13.4298L21.42 7.3234C22.1751 6.56313 22.1751 5.33048 21.42 4.5702C20.6649 3.80993 19.4406 3.80993 18.6855 4.5702L13.9643 9.33146L9.16757 4.5702C8.41248 3.80993 7.1882 3.80993 6.43306 4.5702L0.552663 10.4908C-0.20245 11.2511 -0.20245 12.4837 0.552663 13.244C1.30778 14.0043 2.53206 14.0043 3.28717 13.244L7.83915 8.66091L12.585 13.4298C13.3402 14.1901 14.5644 14.1901 15.3195 13.4298Z" fill="#E31E24"/>
<path d="M35.3646 13.6297V4.76514H33.3854V10.2462L29.1179 4.76514H27.4233V13.6297H29.3901V8.14863L33.67 13.6297H35.3646Z" fill="white"/>
<path d="M51.3417 13.6297H53.1105L56.7101 4.76514H54.5454L52.22 10.6707L49.8821 4.76514H47.7422L51.3417 13.6297Z" fill="white"/>
<path d="M57.6051 13.6297H55.5518L59.3121 4.76514H61.0933L64.8537 13.6297H62.8004L61.3036 10.0339L60.2027 7.37456L59.0894 10.0339L58.3844 11.7569L57.6051 13.6297Z" fill="white"/>
<path d="M69.4096 13.7794C71.2405 13.7794 72.5512 12.6558 72.5512 11.0451C72.564 9.70923 71.7348 8.86023 70.4606 8.3983L69.8425 8.17353C68.9024 7.8364 68.4817 7.63668 68.4817 7.14974C68.4817 6.68778 69.014 6.47553 69.5456 6.47553C70.1022 6.47553 70.6588 6.71276 71.0673 7.21217L72.3537 5.83879C71.5245 4.93985 70.5973 4.61523 69.5205 4.61523C67.777 4.61523 66.4906 5.62654 66.4906 7.3495C66.4906 8.5606 67.2697 9.42205 68.7042 9.90895L69.3231 10.1212C70.2138 10.4209 70.5472 10.733 70.5472 11.1825C70.5472 11.6195 70.1394 11.9191 69.484 11.9191C68.8409 11.9191 68.0982 11.5446 67.6654 10.9078L66.1565 12.1938C66.849 13.1926 68.0116 13.7794 69.4096 13.7794Z" fill="white"/>
<path d="M39.6073 9.26419C39.6073 10.7001 40.7329 11.9236 42.1678 11.9236C42.4344 11.9236 42.6905 11.8806 42.9309 11.8013L44.379 13.263C43.7239 13.6343 42.9694 13.8463 42.1678 13.8463C39.6568 13.8463 37.6282 11.7862 37.6282 9.26419C37.6282 6.7422 39.6568 4.68213 42.1678 4.68213C44.6665 4.68213 46.7074 6.7422 46.7074 9.26419C46.7074 10.2262 46.4104 11.121 45.9044 11.8599L44.4652 10.4072C44.6261 10.0584 44.7159 9.66971 44.7159 9.26419C44.7159 7.82839 43.5903 6.60486 42.1678 6.60486C40.7329 6.60486 39.6073 7.82839 39.6073 9.26419Z" fill="white"/>
<path d="M75.8537 13.8463C76.7655 13.8463 77.5047 13.0714 77.5047 12.1155C77.5047 11.1597 76.7655 10.3848 75.8537 10.3848C74.9418 10.3848 74.2026 11.1597 74.2026 12.1155C74.2026 13.0714 74.9418 13.8463 75.8537 13.8463Z" fill="#E31E24"/>
</g>
<defs>
<clipPath id="clip0">
<rect width="78" height="15" fill="white"/>
</clipPath>
</defs>
</svg>
