<svg width="41" height="35" viewBox="0 0 41 35" fill="none" xmlns="http://www.w3.org/2000/svg">
<path d="M0 20.4003V20.2266L0.0436626 20.0529C0.567604 15.6267 6.85063 15.6186 7.42722 20.0529V20.3999C7.30779 24.9904 0.901916 25.4807 0.0436626 20.9646V20.7905L0 20.6168V20.3999V20.4003Z" fill="#004D9F"/>
<path d="M8.3812 20.4005V20.2268L8.42442 20.0531C8.99416 15.623 15.2126 15.6144 15.8084 20.0531V20.4C15.7147 24.9811 9.28867 25.4783 8.42442 20.9648V20.7906L8.3812 20.6169V20.4V20.4005Z" fill="#004D9F"/>
<path d="M16.7656 20.4004L16.8092 20.2267V20.053C17.3824 15.6306 23.5927 15.6075 24.1932 20.053V20.4C24.0956 24.987 17.6773 25.4709 16.8092 20.9647V20.6173L16.7656 20.4004Z" fill="#004D9F"/>
<path d="M25.1915 20.4004V20.0534C25.772 15.6272 31.9831 15.6165 32.5755 20.0534V20.4004C32.4792 24.9815 26.0707 25.4748 25.1915 20.9651V20.6177V20.4008V20.4004Z" fill="#004D9F"/>
<path d="M33.5728 20.4002V20.0533C34.1725 15.6044 40.3866 15.6369 40.9564 20.0533V20.227L41 20.4006C40.8455 24.9783 34.3857 25.4716 33.616 20.9654L33.5728 20.7912V20.6176V20.4006V20.4002Z" fill="#004D9F"/>
<path d="M0 12.0662V11.8492L0.0436626 11.6751C0.597139 7.26644 6.82195 7.25874 7.42722 11.6751V12.0662C7.26242 16.6366 0.93616 17.0956 0.0436626 12.6305V12.4135L0 12.2399V12.0662Z" fill="#87A6D5"/>
<path d="M8.3812 12.0659V11.849L8.42442 11.6748C9.02712 7.25075 15.1946 7.26615 15.8084 11.6748V12.0659C15.6701 16.6217 9.32634 17.0966 8.42442 12.6302V12.4133L8.3812 12.2396V12.0659Z" fill="#87A6D5"/>
<path d="M16.7656 12.066L16.8092 11.8491V11.675C17.4179 7.25392 23.5777 7.26547 24.1932 11.675V12.066C24.0528 16.6245 17.7172 17.0929 16.8092 12.6303V12.2397L16.7656 12.066Z" fill="#87A6D5"/>
<path d="M25.1915 12.066V11.6749C25.8092 7.25811 31.9536 7.26068 32.5755 11.6749V12.066C32.4343 16.624 26.1067 17.0911 25.1915 12.6303V12.2397V12.066Z" fill="#87A6D5"/>
<path d="M33.5728 12.0659V11.6748C34.2029 7.25416 40.3412 7.26015 40.9564 11.6748V11.8489L41 12.0659L40.9564 12.2395C40.9512 13.9577 39.5151 15.4743 37.8294 15.7126L37.6552 15.7562H37.4386C35.5941 15.8255 34.0312 14.59 33.616 12.8038V12.6301L33.5728 12.4132V12.2395V12.0659Z" fill="#87A6D5"/>
<path d="M0 3.68749V3.5138L0.0436626 3.29689C0.635665 -1.09682 6.78513 -1.1011 7.42722 3.29689V3.68749C7.25043 8.26517 0.966552 8.76144 0.0436626 4.25221V4.07809L0 3.86161V3.68749Z" fill="#CEE0F3"/>
<path d="M8.3812 3.68744V3.51374L8.42442 3.29684C9.03997 -1.1033 15.1805 -1.09003 15.8084 3.29684V3.68744C15.6791 8.25442 9.32248 8.74684 8.42442 4.25216V4.07804L8.3812 3.86156V3.68744Z" fill="#CEE0F3"/>
<path d="M16.7656 3.68744L16.8092 3.51375V3.29684C17.4304 -1.09602 23.5584 -1.09602 24.1932 3.29684V3.68744C24.0593 8.25999 17.712 8.74 16.8092 4.25216V3.86156L16.7656 3.68744Z" fill="#CEE0F3"/>
<path d="M25.1915 3.68746V3.29686C25.8165 -1.09471 31.9454 -1.09343 32.5755 3.29686V3.68746C32.4415 8.25787 26.1028 8.74002 25.1915 4.25219V3.86159V3.68746Z" fill="#CEE0F3"/>
<path d="M33.5728 3.68747V3.29687C34.1973 -1.09257 40.3434 -1.09428 40.9564 3.29687V3.51377L41 3.68747L40.9564 3.86159C40.9773 5.53394 39.4808 7.16822 37.8294 7.33421L37.6552 7.37785H37.4386C35.6531 7.53486 33.9751 6.14658 33.616 4.42589V4.25219L33.5728 4.07807V3.86159V3.68747Z" fill="#CEE0F3"/>
<path d="M7.8178 32.5981V32.5549L7.86144 32.5113C10.5449 28.9141 7.3161 24.2791 2.95377 25.6524L2.77998 25.6961L2.56296 25.7829C-2.69957 28.577 1.01425 35.6908 6.34142 33.6835L6.42833 33.6398L6.55846 33.5962L7.29685 34.3778L9.16446 33.9436L7.8178 32.5977V32.5981ZM7.03618 29.6461V29.6898C7.05073 30.1082 6.90947 30.8017 6.68859 31.1658V31.2094H6.6449V31.253H6.60168L5.95019 30.5146L4.08258 30.8188L5.34192 32.1647L5.16811 32.2511H5.03798L4.90743 32.2948C4.63904 32.2695 4.49606 32.4214 4.16903 32.2948H4.0389L3.90835 32.2511C3.47772 32.219 3.12757 31.9589 2.77956 31.7301L2.51888 31.4695C1.8601 30.7148 1.6726 29.6205 2.04116 28.6912L2.08438 28.6048L2.12805 28.4748L2.17171 28.3879L2.25862 28.2579C2.77742 27.4245 3.76538 26.9958 4.73407 27.0856L4.8642 27.1288H4.95107L5.0812 27.1725C5.47887 27.2546 5.84101 27.4779 6.16719 27.7372L6.42787 27.9977L6.47155 28.1278L6.6449 28.3015L6.68859 28.432L6.73223 28.5188L6.81914 28.6489L6.86278 28.7789L6.90604 28.8658L6.94969 28.9959V29.1263L6.99337 29.2564V29.3869L7.03701 29.5169V29.647L7.03618 29.6461Z" fill="#E0003C"/>
<path d="M33.1817 25.6963H34.8323L38.3942 30.6449V25.6963H40.2618V33.8138H38.5243L34.9192 28.8219V33.8138H33.1817V25.6963Z" fill="#E0003C"/>
<path d="M9.29462 33.7705H11.2054V25.6531H9.29462V33.7705Z" fill="#E0003C"/>
<path d="M27.6242 25.6531H32.4454V27.2155H29.5791V28.8652H32.4454V30.5144H29.5791V32.2077H32.4454V33.7705H27.6242V25.6531Z" fill="#E0003C"/>
<path d="M19.7196 33.7705L16.6359 25.6531H14.4207L11.2496 33.7705H13.291L13.8993 32.3378H17.0699L17.6345 33.7705H19.7196ZM16.5057 30.7754H14.4639L15.5066 27.7802L16.5057 30.7754Z" fill="#E0003C"/>
<path d="M26.8422 27.5195L26.7986 27.4759V27.4322L26.7549 27.3886V27.3022L26.7113 27.2585L26.6248 27.0849L26.4946 26.9544L26.4077 26.8243L26.0602 26.4769L25.9301 26.3905L25.8431 26.26L25.5829 26.0863C24.9284 25.6542 24.1497 25.4039 23.3677 25.3915L23.1506 25.3479H22.8904L22.6297 25.3915C20.4667 25.522 18.9125 27.2928 18.7207 29.3852V29.9927C19.1744 35.3127 26.8897 35.4834 27.3204 30.1228L27.364 29.8191V29.5149H23.2812V31.0341H25.3663L25.2794 31.2082L25.2357 31.2946L25.1921 31.3815L25.1484 31.4679L25.1052 31.5547L25.0183 31.5984L24.9746 31.6848L24.9309 31.7284L24.8445 31.7721L24.8008 31.8589L24.627 31.9453L24.5834 31.989L24.3227 32.1194H24.279L24.1052 32.2059H24.0183L23.9318 32.2495H23.845L23.7585 32.2931H23.5843L23.4978 32.3363H22.9765C21.7479 32.2499 20.6769 31.2133 20.5442 29.9923V29.3412L20.5874 29.2107L20.6311 29.0806V28.9501L20.6748 28.8201L20.7184 28.6896L20.8053 28.5595L20.8486 28.4731L20.8922 28.3426L21.0665 28.1689L21.1097 28.0385L21.3704 27.7779C21.7256 27.4391 22.1914 27.2277 22.6734 27.1268H23.1078C23.4019 27.1045 23.8912 27.1815 24.1506 27.3009L24.2371 27.3445H24.324C24.6005 27.5396 24.922 27.6834 25.1493 27.952L25.2362 28.0385L25.2798 28.1253L25.3235 28.1689L26.8435 27.5178L26.8422 27.5195Z" fill="#E0003C"/>
</svg>
