<svg width="82" height="15" viewBox="0 0 82 15" fill="none" xmlns="http://www.w3.org/2000/svg">
<path d="M63.3795 7.12974C63.3795 5.48112 62.0428 4.14404 60.394 4.14404C58.7437 4.14404 57.407 5.48112 57.407 7.12974C57.407 8.77837 58.7437 10.1154 60.394 10.1154C62.0428 10.1154 63.3795 8.77837 63.3795 7.12974Z" fill="#D42427"/>
<path d="M15.8433 7.73063L17.2204 4.39739L18.7063 7.73063H15.8433ZM16.3049 0.144775L10.3229 14.0608H13.1328L14.7776 10.2241H19.8346L21.5856 14.0608H24.3849L18.1618 0.144775H16.3053H16.3049Z" fill="#00584B"/>
<path d="M35.7139 9.66062L27.4073 0.147682H25.3216V14.0608H27.8957V4.66422L36.082 14.0608H38.2862V0.144775H35.7117L35.7139 9.66062Z" fill="#00584B"/>
<path d="M44.1283 11.5881H43.1305V2.65934H44.0318C47.1298 2.65934 48.9801 4.32832 48.9801 7.12389C48.9801 8.78269 47.9576 11.5881 44.1283 11.5881ZM40.5505 0.144775V14.0608H44.3312C49.8269 14.0608 51.7248 10.4971 51.7248 7.12389C51.7248 3.77284 49.394 0.144775 44.3181 0.144775H40.5505Z" fill="#00584B"/>
<path d="M75.8139 6.89995L81.6431 0.144775H78.3262L74.1571 4.94124L70.2295 0.144775H66.8977L72.4828 6.89923L66.4932 14.0608H69.8196L74.1564 8.89321L78.6969 14.0608H82L75.8139 6.89995Z" fill="#00584B"/>
<path d="M60.3946 11.7294C57.8524 11.7294 55.7933 9.66962 55.7933 7.13034C55.7933 4.59033 57.8524 2.53165 60.3946 2.53165C62.9352 2.53165 64.9969 4.59033 64.9969 7.13034C64.9969 9.66962 62.9356 11.7294 60.3946 11.7294ZM60.3946 0C56.4542 0 53.2599 3.19255 53.2599 7.13034C53.2599 11.0689 56.4542 14.261 60.3946 14.261C64.3349 14.261 67.5299 11.0689 67.5299 7.13034C67.5299 3.19255 64.3349 0 60.3946 0Z" fill="#00584B"/>
<path fill-rule="evenodd" clip-rule="evenodd" d="M5.76738 4.20912C5.76738 5.07578 5.19631 5.76904 3.4533 5.76904H2.57852V2.65683H3.4533C5.12975 2.65683 5.76738 3.34282 5.76738 4.20912ZM0 0.149902V14.0609H2.57852V8.2836L3.38638 8.2407L6.90841 14.0591H10.0242L6.11911 7.75902C8.10874 6.62661 8.50194 5.04342 8.50194 4.20548C8.50194 1.69855 6.45047 0.149902 3.90142 0.149902H0.00036409H0Z" fill="#00584B"/>
</svg>
