<svg width="76" height="36" viewBox="0 0 76 36" fill="none" xmlns="http://www.w3.org/2000/svg">
<path fill-rule="evenodd" clip-rule="evenodd" d="M19.7678 8.72217H18.9484C18.8794 9.33659 18.6057 9.64338 18.1286 9.64338C17.9235 9.64338 17.5475 9.54112 17.0018 9.33659C15.8397 8.9267 14.851 8.72217 14.0316 8.72217C10.3438 8.79076 8.39763 10.5313 8.19299 13.9431C8.05531 16.1281 9.5581 17.9709 12.6997 19.4712L14.4408 20.3924C16.4898 21.144 17.4789 22.2016 17.4119 23.566C17.2738 25.4088 16.1824 26.3654 14.1343 26.4323C11.402 26.4323 9.5918 24.5894 8.70501 20.9042H7.98834V27.1494H8.70501C8.84102 26.6726 9.11513 26.4327 9.52483 26.4327C9.72947 26.4327 10.1038 26.5013 10.6516 26.6377C11.8807 26.9781 13.0075 27.1494 14.032 27.1494C18.0599 27.0118 20.2108 25.2396 20.4849 21.8258C20.4849 19.7115 19.5278 18.1073 17.617 17.0148L13.8273 15.1719C12.6652 14.6265 11.9148 14.148 11.5742 13.7381C11.2314 13.3287 11.0621 12.7496 11.0621 11.998C11.1291 10.4973 12.0862 9.67872 13.9301 9.54112C16.3197 9.60971 18.0271 11.2144 19.0516 14.3526H19.7686V8.72217H19.7678ZM43.8387 9.13123V9.74565C44.9306 9.81466 45.4089 10.3264 45.2729 11.2813V26.9444H45.6826L47.7311 25.7156C48.7556 26.6036 49.847 27.0463 51.0088 27.0463C54.8325 26.9091 56.8473 24.7275 57.0524 20.4947C56.8473 16.6735 55.2085 14.6598 52.1355 14.4548C50.906 14.4548 49.847 14.9329 48.9602 15.8882V9.13123H43.8383H43.8387ZM50.7018 26.3304C49.6087 26.3304 49.0276 25.6487 48.9607 24.2826V17.4238C49.3013 16.3999 49.9161 15.8882 50.8041 15.8882C52.3743 15.9568 53.1941 17.6284 53.2627 20.9042C53.3285 24.5221 52.5078 26.3321 50.7983 26.3321C50.7667 26.3321 50.7342 26.3313 50.7018 26.3304ZM58.5889 20.8023C58.7249 24.7611 60.4997 26.8422 63.915 27.0467C65.9635 27.1145 67.7046 26.0922 69.1392 23.9763L68.5245 23.5664C67.6364 24.7279 66.6457 25.307 65.5538 25.307C63.5723 25.307 62.5145 23.6686 62.3781 20.3928H69.0365C68.8314 16.4353 67.1577 14.4552 64.0173 14.4552C60.602 14.7288 58.7935 16.8447 58.5889 20.8023ZM64.1201 15.2742C64.8018 15.2742 65.2801 15.6841 65.5542 16.503C65.6902 17.0501 65.7593 18.0387 65.7593 19.472H62.2766C62.2766 16.5384 62.8914 15.1383 64.1205 15.2746L64.1201 15.2742ZM27.2452 16.6049H27.1429V14.7625H22.1241V15.3765C23.216 15.445 23.6939 15.9572 23.5583 16.9121V24.5899C23.6943 25.6138 23.216 26.1608 22.1241 26.2282V26.8422H28.4743V26.2282C27.5863 26.1608 27.1766 25.6491 27.2452 24.6925V17.731C27.8599 16.7762 28.5766 16.264 29.3964 16.1954C30.4209 16.1954 30.898 16.9121 30.8306 18.345V24.6925C30.8306 25.6491 30.4209 26.1608 29.6011 26.2282V26.8422H35.747V26.2282C34.7899 26.1608 34.3466 25.6491 34.4152 24.6925V18.1409C34.3466 15.8213 33.1861 14.5928 30.9329 14.4552C29.2937 14.4552 28.0646 15.1719 27.2452 16.6049ZM36.5664 14.7625V15.3765C37.5909 15.5141 38.068 16.0258 38.0006 16.9121V24.5899C38.068 25.6138 37.5909 26.1608 36.5664 26.2282V26.8422H42.8147V26.2282C41.9267 26.1608 41.5166 25.6491 41.5852 24.6925V14.7625H36.5664Z" fill="url(#paint0_linear)"/>
<path fill-rule="evenodd" clip-rule="evenodd" d="M37.6702 9.78169C37.1054 10.8359 37.5047 12.1537 38.5603 12.7179C39.6073 13.2774 40.9258 12.8783 41.4906 11.8241C42.0542 10.7698 41.6558 9.45203 40.608 8.89165C40.2832 8.7183 39.9334 8.63599 39.5885 8.63599C38.8128 8.63599 38.0612 9.0517 37.6702 9.78169Z" fill="url(#paint1_radial)"/>
<path d="M30.7414 33.1535H31.4277C31.8183 33.1535 32.1248 33.0388 32.3473 32.8093C32.5699 32.5794 32.725 32.2194 32.8111 31.7285C32.898 31.2358 32.8702 30.875 32.7292 30.6459C32.5873 30.4173 32.3215 30.3026 31.931 30.3026H31.2447L30.7414 33.1535ZM29.2902 34.1878L30.1595 29.2583H32.265C32.9954 29.2583 33.5174 29.4711 33.8322 29.896C34.1467 30.3213 34.2336 30.9315 34.0935 31.728C33.9479 32.5516 33.638 33.1668 33.163 33.575C32.688 33.9833 32.0445 34.1874 31.2318 34.1874H29.2902V34.1878Z" fill="#084275"/>
<path d="M35.0582 30.219L35.2275 29.2583H36.4125L36.2432 30.219H35.0582ZM34.3578 34.1878L35 30.5503H36.185L35.5436 34.1878H34.3578Z" fill="#084275"/>
<path d="M38.752 32.4745C38.6497 32.5323 38.4804 32.5859 38.2417 32.635C38.1256 32.6574 38.0379 32.6765 37.9771 32.6923C37.827 32.7322 37.7172 32.7834 37.6469 32.8461C37.577 32.9085 37.5325 32.9921 37.5138 33.0972C37.4909 33.2261 37.513 33.3304 37.5791 33.4098C37.6456 33.4892 37.7446 33.5283 37.8769 33.5283C38.0799 33.5283 38.2554 33.4701 38.4043 33.3529C38.5536 33.2357 38.6447 33.0823 38.678 32.8927L38.7516 32.4745H38.752ZM39.7624 34.1876H38.547C38.5441 34.1299 38.5424 34.0696 38.5437 34.0072C38.5445 33.9449 38.5466 33.88 38.5495 33.8127C38.3523 33.9802 38.1527 34.1041 37.9501 34.1843C37.7471 34.2646 37.5329 34.3045 37.3075 34.3045C36.9568 34.3045 36.6965 34.2084 36.5268 34.0155C36.3566 33.8226 36.3001 33.5624 36.3583 33.234C36.4111 32.933 36.5342 32.6882 36.7272 32.4994C36.9202 32.3115 37.1848 32.1789 37.5217 32.1033C37.7072 32.0638 37.9414 32.0197 38.2242 31.9732C38.6464 31.9058 38.8693 31.8077 38.8922 31.6784L38.9076 31.5915C38.9263 31.4864 38.9009 31.4065 38.8315 31.3517C38.762 31.2972 38.6489 31.2698 38.4929 31.2698C38.3232 31.2698 38.1826 31.3047 38.0707 31.3733C37.9593 31.4427 37.8794 31.5437 37.8307 31.678H36.7331C36.8632 31.2673 37.0874 30.9621 37.4048 30.7614C37.723 30.5601 38.1419 30.46 38.6618 30.46C38.9858 30.46 39.2516 30.499 39.46 30.5772C39.6679 30.6549 39.821 30.773 39.9179 30.9318C39.9853 31.0453 40.0223 31.1808 40.0306 31.3384C40.0385 31.4959 40.0119 31.7483 39.9508 32.0962L39.707 33.4751C39.6779 33.6406 39.67 33.7699 39.6833 33.8646C39.6971 33.9594 39.7308 34.0214 39.7861 34.0505L39.7619 34.1876H39.7624Z" fill="#084275"/>
<path d="M41.7375 32.3505C41.6863 32.6407 41.7071 32.8693 41.8011 33.0352C41.8947 33.201 42.0474 33.2842 42.2591 33.2842C42.4845 33.2842 42.6742 33.2023 42.8281 33.0381C42.9824 32.8743 43.0852 32.6452 43.1367 32.3505C43.1933 32.0317 43.1775 31.7897 43.0893 31.6247C43.0016 31.4592 42.8439 31.3769 42.616 31.3769C42.388 31.3769 42.1988 31.4605 42.0478 31.628C41.8968 31.7955 41.7932 32.0358 41.7375 32.3505ZM40.3308 34.4956H41.5233C41.5354 34.6049 41.5819 34.686 41.663 34.7383C41.7437 34.7907 41.8619 34.8169 42.0158 34.8169C42.272 34.8169 42.4629 34.7591 42.5885 34.6444C42.7133 34.5297 42.8023 34.3226 42.8547 34.0242L42.9234 33.6392C42.7591 33.8354 42.5756 33.9818 42.3718 34.0774C42.1688 34.1734 41.9434 34.2212 41.6955 34.2212C41.2488 34.2212 40.9148 34.0491 40.6918 33.7045C40.4693 33.3598 40.4073 32.9109 40.5047 32.3572C40.6045 31.7905 40.827 31.3316 41.1727 30.9799C41.5175 30.6286 41.9184 30.4536 42.3735 30.4536C42.6255 30.4536 42.8364 30.5002 43.0049 30.5937C43.1737 30.6872 43.3127 30.8348 43.4225 31.0352L43.5082 30.5501H44.6262L44.0971 33.5515C44.0173 34.0046 43.9441 34.3231 43.8779 34.5072C43.8122 34.6914 43.7294 34.8439 43.6296 34.967C43.447 35.1919 43.2087 35.3632 42.915 35.4787C42.621 35.5947 42.2832 35.6525 41.9014 35.6525C41.3503 35.6525 40.9468 35.5585 40.6906 35.3698C40.4348 35.1815 40.315 34.8901 40.3308 34.4947V34.4956Z" fill="#084275"/>
<path d="M44.8146 34.1876L45.4564 30.5501H46.6214L46.5341 31.049C46.6934 30.8498 46.8726 30.7022 47.071 30.605C47.2686 30.5085 47.4928 30.4595 47.7428 30.4595C48.1687 30.4595 48.459 30.5659 48.6121 30.7792C48.7652 30.9924 48.7997 31.3395 48.7144 31.8213L48.2968 34.1876H47.1047L47.4275 32.3568C47.5032 31.929 47.5153 31.6559 47.4645 31.5387C47.4142 31.4214 47.2923 31.3632 47.1006 31.3632C46.8909 31.3632 46.7258 31.4327 46.6052 31.5723C46.4846 31.7116 46.3972 31.9344 46.3431 32.24L45.9992 34.1876H44.8141H44.8146Z" fill="#084275"/>
<path d="M50.4357 32.364C50.3779 32.6965 50.3937 32.9518 50.4848 33.1301C50.5759 33.3085 50.7348 33.3978 50.9598 33.3978C51.1882 33.3978 51.3795 33.3076 51.5346 33.128C51.6906 32.9484 51.7971 32.694 51.8553 32.364C51.9131 32.0355 51.8961 31.7828 51.8038 31.604C51.7118 31.4257 51.5513 31.3363 51.3233 31.3363C51.0958 31.3363 50.9053 31.4249 50.7527 31.6024C50.6 31.7795 50.494 32.0339 50.4353 32.364H50.4357ZM49.2141 32.364C49.3214 31.7545 49.5764 31.2785 49.9782 30.9347C50.3808 30.591 50.8829 30.4197 51.4856 30.4197C52.0903 30.4197 52.5337 30.5914 52.8157 30.9347C53.0982 31.2785 53.1851 31.7545 53.0778 32.364C52.9709 32.9726 52.7151 33.4494 52.3116 33.7944C51.9077 34.1386 51.404 34.3111 50.7993 34.3111C50.192 34.3111 49.7494 34.139 49.4707 33.7961C49.1921 33.4523 49.1064 32.9751 49.2145 32.364H49.2141Z" fill="#084275"/>
<path d="M53.4116 33.0765H54.6036C54.5887 33.2374 54.6273 33.3575 54.7189 33.4382C54.8108 33.5184 54.9572 33.5587 55.1581 33.5587C55.3261 33.5587 55.463 33.5267 55.5699 33.4614C55.6776 33.3966 55.7408 33.3105 55.7604 33.2008C55.7845 33.0603 55.6185 32.9422 55.2604 32.8458C55.0687 32.7946 54.9144 32.7489 54.7987 32.7086C54.3699 32.5589 54.0862 32.4035 53.9473 32.2417C53.8084 32.08 53.7622 31.868 53.8088 31.6045C53.8737 31.2361 54.0654 30.9472 54.3836 30.736C54.7022 30.5253 55.1078 30.4197 55.6015 30.4197C56.1281 30.4197 56.5186 30.5095 56.7728 30.6891C57.0269 30.8691 57.1396 31.1372 57.1126 31.4943H55.9683C55.965 31.3712 55.9255 31.2806 55.8486 31.2216C55.772 31.1626 55.6568 31.1326 55.5025 31.1326C55.3598 31.1326 55.245 31.1605 55.1585 31.2145C55.0716 31.2694 55.0196 31.3467 55.0021 31.4469C54.9772 31.5899 55.1489 31.7134 55.5191 31.8181C55.6086 31.8427 55.6772 31.8634 55.7258 31.8784C56.069 31.9836 56.3061 32.0622 56.4379 32.1145C56.569 32.1669 56.6617 32.2164 56.7162 32.2634C56.8306 32.359 56.9084 32.4708 56.9483 32.5984C56.9886 32.7252 56.9936 32.8736 56.9637 33.0428C56.8942 33.4377 56.6854 33.747 56.3381 33.9699C55.9904 34.1927 55.5412 34.3041 54.9901 34.3041C54.4497 34.3041 54.0425 34.1977 53.7676 33.9832C53.4927 33.7691 53.3745 33.4668 53.412 33.0761L53.4116 33.0765Z" fill="#084275"/>
<path d="M57.5526 31.2699L57.6799 30.5503H58.1686L58.35 29.5198H59.5425L59.3607 30.5503H59.9696L59.8428 31.2699H59.2338L58.956 32.8459C58.9131 33.087 58.9165 33.2462 58.9651 33.3244C59.013 33.4025 59.124 33.4416 59.2954 33.4416C59.3337 33.4416 59.3636 33.4412 59.3848 33.4399C59.406 33.4383 59.4268 33.437 59.4472 33.4345L59.3137 34.1944C59.1839 34.2186 59.0587 34.2377 58.9368 34.2514C58.8146 34.2647 58.6985 34.2714 58.5866 34.2714C58.1736 34.2714 57.9091 34.1708 57.793 33.9687C57.6765 33.7667 57.6765 33.3368 57.793 32.6783L58.0413 31.2699H57.5522H57.5526Z" fill="#084275"/>
<path d="M60.5776 30.219L60.7469 29.2583H61.9319L61.7622 30.219H60.5772H60.5776ZM59.8776 34.1878L60.5194 30.5503H61.7044L61.0626 34.1878H59.8776Z" fill="#084275"/>
<path d="M65.513 32.8391C65.3711 33.301 65.1216 33.661 64.7651 33.9183C64.4082 34.176 63.9782 34.3045 63.4765 34.3045C62.9341 34.3045 62.5282 34.1316 62.2591 33.7844C61.99 33.4373 61.9059 32.9788 62.0066 32.4072C62.1152 31.7915 62.368 31.3064 62.7657 30.9518C63.1629 30.5968 63.6496 30.4197 64.2256 30.4197C64.7256 30.4197 65.1058 30.5448 65.3662 30.7959C65.6265 31.047 65.7363 31.3945 65.696 31.8385H64.4939C64.4902 31.6693 64.4511 31.5421 64.3766 31.4573C64.3026 31.3725 64.1953 31.3297 64.0543 31.3297C63.8488 31.3297 63.6774 31.4178 63.5389 31.5941C63.4008 31.7703 63.3014 32.0293 63.2415 32.3702C63.1825 32.7053 63.1891 32.9543 63.2619 33.1181C63.3343 33.2823 63.4749 33.3642 63.6824 33.3642C63.8384 33.3642 63.9707 33.3209 64.0788 33.2336C64.1861 33.1463 64.2726 33.0154 64.3375 32.8387H65.5126L65.513 32.8391Z" fill="#084275"/>
<path d="M28.3069 33.2719H8.96008C5.94655 33.2719 3.5036 30.9574 3.5036 28.1022V10.0085C3.5036 7.15339 5.94655 4.83887 8.96008 4.83887H67.6173C70.6308 4.83887 73.0737 7.15339 73.0737 10.0085V28.1022C73.0737 30.9574 70.6308 33.2719 67.6173 33.2719H67.0242" stroke="url(#paint2_linear)" stroke-width="3"/>
<defs>
<linearGradient id="paint0_linear" x1="38.5638" y1="8.72217" x2="38.5638" y2="27.1494" gradientUnits="userSpaceOnUse">
<stop stop-color="#008ACF"/>
<stop offset="0.929412" stop-color="#084275"/>
<stop offset="1" stop-color="#084275"/>
</linearGradient>
<radialGradient id="paint1_radial" cx="0" cy="0" r="1" gradientUnits="userSpaceOnUse" gradientTransform="translate(39.9141 9.7445) rotate(109.029) scale(3.13006 3.01669)">
<stop stop-color="#FEFEFE"/>
<stop offset="0.101961" stop-color="#F5B1A6"/>
<stop offset="0.25098" stop-color="#EA5451"/>
<stop offset="0.458824" stop-color="#D2202B"/>
<stop offset="0.94902" stop-color="#8C2227"/>
<stop offset="1" stop-color="#8C2227"/>
</radialGradient>
<linearGradient id="paint2_linear" x1="38.2887" y1="4.83887" x2="38.2887" y2="33.2719" gradientUnits="userSpaceOnUse">
<stop stop-color="#0A8ED8"/>
<stop offset="1" stop-color="#10396D"/>
</linearGradient>
</defs>
</svg>
