<svg width="50" height="50" viewBox="0 0 50 50" fill="none" xmlns="http://www.w3.org/2000/svg">
<circle cx="25" cy="24.9999" r="24.1791" fill="#3B63A1"/>
<path d="M29.2935 34.402H29.3198C29.8163 34.402 30.2855 34.2064 30.6409 33.8509L33.191 31.3008C33.2784 31.2136 33.3477 31.11 33.395 30.9959C33.4423 30.8818 33.4667 30.7595 33.4667 30.6361C33.4667 30.5126 33.4423 30.3903 33.395 30.2762C33.3477 30.1621 33.2784 30.0585 33.191 29.9713L29.4298 26.2101C29.3426 26.1227 29.2389 26.0533 29.1249 26.006C29.0108 25.9587 28.8885 25.9344 28.765 25.9344C28.6415 25.9344 28.5192 25.9587 28.4052 26.006C28.2911 26.0533 28.1875 26.1227 28.1002 26.2101L26.6014 27.7089C25.9065 27.502 24.6098 27.0319 23.788 26.2101C22.9662 25.3883 22.496 24.0916 22.2892 23.3967L23.788 21.8979C23.8754 21.8106 23.9447 21.707 23.992 21.5929C24.0394 21.4788 24.0637 21.3566 24.0637 21.2331C24.0637 21.1096 24.0394 20.9873 23.992 20.8732C23.9447 20.7592 23.8754 20.6555 23.788 20.5683L20.0268 16.8071C19.8471 16.6374 19.6092 16.5429 19.362 16.5429C19.1148 16.5429 18.877 16.6374 18.6972 16.8071L16.1481 19.3572C15.7908 19.7145 15.5895 20.2053 15.5971 20.7065C15.6187 22.0455 15.9732 26.6962 19.6385 30.3615C23.3038 34.0268 27.9545 34.3803 29.2935 34.402ZM19.363 18.8015L21.7946 21.2331L20.5788 22.4489C20.4681 22.5592 20.3869 22.6955 20.3423 22.8453C20.2978 22.995 20.2915 23.1536 20.3239 23.3064C20.3465 23.4146 20.8985 25.9788 22.4594 27.5397C24.0203 29.1005 26.5845 29.6525 26.6926 29.6751C26.8454 29.7077 27.004 29.7014 27.1538 29.6569C27.3036 29.6124 27.4399 29.531 27.5501 29.4203L28.7659 28.2044L31.1976 30.6361L29.3113 32.5214C28.1378 32.5016 24.1228 32.1866 20.9681 29.031C17.803 25.8659 17.4965 21.8367 17.4777 20.6868L19.363 18.8015ZM32.5215 24.0587H34.4021C34.4021 19.2349 30.7603 15.5969 25.93 15.5969V17.4775C29.7495 17.4775 32.5215 20.2448 32.5215 24.0587Z" fill="white"/>
<path d="M25.9394 21.2387C27.9168 21.2387 28.7603 22.0822 28.7603 24.0596H30.6409C30.6409 21.0271 28.9719 19.3581 25.9394 19.3581V21.2387Z" fill="white"/>
</svg>
