<svg width="40" height="40" viewBox="0 0 40 40" fill="none" xmlns="http://www.w3.org/2000/svg">
<circle cx="20" cy="20" r="19" stroke="#EAEAEA" stroke-width="2"/>
<path opacity="0.4" d="M22.0153 14.5754C21.6186 14.5021 21.2542 14.7552 21.1787 15.1425C21.1032 15.5297 21.3571 15.9078 21.743 15.9836C22.9049 16.2101 23.8021 17.1095 24.0295 18.2753V18.2762C24.0942 18.6118 24.3897 18.8558 24.7299 18.8558C24.7756 18.8558 24.8212 18.8516 24.8677 18.8433C25.2536 18.7658 25.5076 18.3886 25.432 18.0005C25.0926 16.2592 23.7523 14.9143 22.0153 14.5754Z" fill="#3B63A1"/>
<path opacity="0.4" d="M21.9634 11.6736C21.7775 11.647 21.5908 11.7019 21.4422 11.8202C21.2895 11.9401 21.1941 12.1133 21.1733 12.3073C21.1293 12.6996 21.4123 13.0543 21.8041 13.0985C24.5055 13.3999 26.6051 15.5043 26.9089 18.2141C26.9496 18.5772 27.2541 18.8512 27.6176 18.8512C27.645 18.8512 27.6716 18.8495 27.699 18.8462C27.889 18.8254 28.0583 18.7313 28.1778 18.5814C28.2965 18.4315 28.3505 18.2449 28.3289 18.0542C27.9504 14.6732 25.3337 12.0492 21.9634 11.6736Z" fill="#3B63A1"/>
<path d="M24.6708 22.2279C24.1305 22.113 23.7031 22.3628 23.3246 22.581C22.9371 22.8058 22.1993 23.4013 21.7777 23.248C19.6149 22.362 17.5808 20.4758 16.7002 18.3139C16.545 17.8834 17.1401 17.1447 17.3633 16.755C17.5816 16.3769 17.8273 15.9464 17.7152 15.4051C17.614 14.9179 16.3044 13.2582 15.8413 12.8044C15.535 12.5046 15.223 12.3397 14.9018 12.3122C13.6943 12.2614 12.3457 13.8661 12.1091 14.2501C11.5157 15.0687 11.5199 16.1579 12.1191 17.4787C13.5631 21.0262 19.0248 26.3801 22.6001 27.8724C23.2591 28.1797 23.8633 28.3337 24.4052 28.3337C24.9355 28.3337 25.4077 28.1863 25.8136 27.894C26.119 27.7183 27.7971 26.3084 27.7523 25.0735C27.7265 24.7587 27.5614 24.4439 27.2643 24.1391C26.8111 23.6736 25.1563 22.3303 24.6708 22.2279Z" fill="#3B63A1"/>
</svg>
