<svg width="18" height="18" viewBox="0 0 18 18" fill="none" xmlns="http://www.w3.org/2000/svg">
<path opacity="0.4" d="M10.8137 4.11732C10.4567 4.05136 10.1288 4.27921 10.0608 4.62772C9.99283 4.97623 10.2214 5.3165 10.5687 5.3847C11.6144 5.58856 12.4218 6.398 12.6265 7.44728V7.44803C12.6847 7.75007 12.9507 7.96967 13.2569 7.96967C13.298 7.96967 13.3391 7.96593 13.3809 7.95843C13.7282 7.88873 13.9568 7.54921 13.8888 7.19995C13.5833 5.63278 12.377 4.42236 10.8137 4.11732Z" fill="#3B63A1"/>
<path opacity="0.4" d="M10.7671 1.50595C10.5998 1.48196 10.4317 1.53143 10.298 1.63786C10.1606 1.74578 10.0747 1.90168 10.056 2.07631C10.0164 2.42931 10.2711 2.74859 10.6237 2.78832C13.0549 3.05963 14.9447 4.95358 15.218 7.3924C15.2546 7.71918 15.5288 7.96576 15.8559 7.96576C15.8806 7.96576 15.9045 7.96426 15.9291 7.96126C16.1002 7.94253 16.2525 7.85783 16.3601 7.72293C16.4669 7.58802 16.5154 7.42014 16.496 7.2485C16.1554 4.20559 13.8004 1.84397 10.7671 1.50595Z" fill="#3B63A1"/>
<path d="M13.2037 11.0048C12.7175 10.9013 12.3328 11.1262 11.9922 11.3226C11.6434 11.5249 10.9794 12.0608 10.5999 11.9229C8.65345 11.1254 6.82273 9.42786 6.03024 7.48219C5.89057 7.09471 6.42611 6.42991 6.62704 6.07916C6.82348 5.73889 7.04457 5.35141 6.94373 4.86424C6.85261 4.42579 5.67396 2.93207 5.25717 2.5236C4.98156 2.25378 4.70071 2.10538 4.41165 2.08065C3.32488 2.03493 2.11112 3.47919 1.89825 3.8247C1.36419 4.56145 1.36793 5.54177 1.90721 6.73046C3.20686 9.92327 8.12238 14.7417 11.3401 16.0848C11.9332 16.3613 12.477 16.5 12.9647 16.5C13.442 16.5 13.867 16.3673 14.2322 16.1043C14.5071 15.9461 16.0174 14.6772 15.9771 13.5658C15.9539 13.2825 15.8053 12.9992 15.5379 12.7248C15.13 12.3059 13.6407 11.097 13.2037 11.0048Z" fill="#3B63A1"/>
</svg>
