<svg width="40" height="40" viewBox="0 0 40 40" fill="none" xmlns="http://www.w3.org/2000/svg">
<path d="M22.9779 23.179C22.8687 23.179 22.7587 23.1507 22.6579 23.0915L19.3862 21.1398C19.1979 21.0265 19.082 20.8223 19.082 20.6023V16.3965C19.082 16.0515 19.362 15.7715 19.707 15.7715C20.052 15.7715 20.332 16.0515 20.332 16.3965V20.2473L23.2987 22.0165C23.5945 22.194 23.692 22.5773 23.5154 22.874C23.3979 23.0698 23.1904 23.179 22.9779 23.179Z" fill="#3B63A1"/>
<path opacity="0.4" d="M28.3332 20.0003C28.3332 24.6037 24.6023 28.3337 19.9998 28.3337C15.3973 28.3337 11.6665 24.6037 11.6665 20.0003C11.6665 15.3987 15.3973 11.667 19.9998 11.667C24.6023 11.667 28.3332 15.3987 28.3332 20.0003Z" fill="#3B63A1"/>
<circle cx="20" cy="20" r="19" stroke="#EAEAEA" stroke-width="2"/>
</svg>
