<svg width="26" height="26" viewBox="0 0 26 26" fill="none" xmlns="http://www.w3.org/2000/svg">
<g clip-path="url(#clip0)">
<path d="M0.235352 15.6023V18.8996C0.235352 20.2667 1.32103 21.2318 2.64798 21.2318H22.7532C24.0802 21.2318 25.1658 20.2667 25.1658 18.8996V15.6023H0.235352Z" fill="#1EB53A"/>
<path d="M22.7532 4.34326H2.64798C1.32103 4.34326 0.235352 5.30831 0.235352 6.67547V9.97272H25.1658V6.67547C25.1658 5.30831 24.0802 4.34326 22.7532 4.34326Z" fill="#0099B5"/>
<path d="M25.1658 9.97266H0.235352V15.6021H25.1658V9.97266Z" fill="white"/>
<path d="M22.7532 21.2318C24.0801 21.2318 25.1658 20.2667 25.1658 18.8996V15.6023H16.0782L22.7532 21.2318Z" fill="#11A325"/>
<path d="M22.7532 4.34326H2.64795L9.28267 9.97272H25.1658V6.67547C25.1658 5.30831 24.0801 4.34326 22.7532 4.34326Z" fill="#078C9E"/>
<path d="M16.0783 15.6021H25.1658V9.97266H9.28271L16.0783 15.6021Z" fill="#E1EAE2"/>
<path d="M22.7532 4.34326H2.64795L21.2654 9.97272H25.1658V6.67547C25.1658 5.30831 24.0801 4.34326 22.7532 4.34326Z" fill="#048089"/>
<path d="M25.1658 11.0985V9.97266H21.0643L25.1658 11.0985Z" fill="#C2CEC3"/>
<path d="M25.1658 18.8593C25.1658 20.3873 24.0802 21.2317 22.7532 21.2317H2.64798C1.32103 21.2317 0.235352 20.1862 0.235352 18.8191" fill="#098914"/>
<path d="M25.1658 9.5708H0.235352V9.9729H25.1658V9.5708Z" fill="#CE1126"/>
<path d="M9.28275 9.9729H25.1659V9.5708H8.76001L9.28275 9.9729Z" fill="#A8071E"/>
<path d="M25.1658 15.6023H0.235352V16.0044H25.1658V15.6023Z" fill="#CE1126"/>
<path d="M16.0782 15.6023L16.5608 16.0044H25.1658V15.6023H16.0782Z" fill="#A8071E"/>
<path d="M4.01503 5.46917C3.93461 5.46917 3.85419 5.42896 3.77377 5.42896C2.92935 5.42896 2.20557 6.11253 2.20557 6.99717C2.20557 7.8818 2.88914 8.56538 3.77377 8.56538C3.85419 8.56538 3.93461 8.56538 4.01503 8.52517C3.29125 8.40454 2.7283 7.76117 2.7283 6.99717C2.7283 6.19296 3.29125 5.5898 4.01503 5.46917Z" fill="white"/>
<path d="M4.77913 8.12317L4.69871 7.92212L4.61829 8.12317H4.41724L4.57808 8.28401L4.53787 8.48507L4.69871 8.36444L4.89976 8.48507L4.81934 8.28401L5.02039 8.12317H4.77913Z" fill="white"/>
<path d="M6.02559 8.12317L5.94517 7.92212L5.86475 8.12317H5.6637L5.82454 8.28401L5.78433 8.48507L5.94517 8.36444L6.14622 8.48507L6.0658 8.28401L6.22664 8.12317H6.02559Z" fill="white"/>
<path d="M7.27205 8.12317L7.19163 7.92212L7.11121 8.12317H6.91016L7.071 8.28401L6.99058 8.48507L7.19163 8.36444L7.39268 8.48507L7.31226 8.28401L7.4731 8.12317H7.27205Z" fill="white"/>
<path d="M8.51851 8.12317L8.43809 7.92212L8.35767 8.12317H8.15662L8.31746 8.28401L8.23704 8.48507L8.43809 8.36444L8.63914 8.48507L8.55872 8.28401L8.71956 8.12317H8.51851Z" fill="white"/>
<path d="M9.76509 8.12317L9.68467 7.92212L9.60425 8.12317H9.4032L9.56404 8.28401L9.48362 8.48507L9.68467 8.36444L9.84551 8.48507L9.8053 8.28401L9.96615 8.12317H9.76509Z" fill="white"/>
<path d="M5.94517 6.67529L5.90496 6.87634H5.6637L5.86475 7.03718L5.78433 7.23823L5.94517 7.1176L6.14622 7.23823L6.0658 7.03718L6.26685 6.87634H6.02559L5.94517 6.67529Z" fill="white"/>
<path d="M7.19163 6.67529L7.15142 6.87634H6.91016L7.11121 7.03718L7.03079 7.23823L7.19163 7.1176L7.39268 7.23823L7.31226 7.03718L7.51331 6.87634H7.27205L7.19163 6.67529Z" fill="white"/>
<path d="M8.43809 6.67529L8.39788 6.87634H8.15662L8.35767 7.03718L8.27725 7.23823L8.43809 7.1176L8.63914 7.23823L8.55872 7.03718L8.75977 6.87634H8.51851L8.43809 6.67529Z" fill="white"/>
<path d="M9.76509 6.87634L9.68467 6.67529L9.64446 6.87634H9.4032L9.56404 7.03718L9.52383 7.23823L9.68467 7.1176L9.88572 7.23823L9.8053 7.03718L10.0064 6.87634H9.76509Z" fill="white"/>
<path d="M7.07093 5.79085L6.9905 5.9919L7.19156 5.87127L7.3524 5.9919L7.31219 5.79085L7.47303 5.63001H7.27198L7.19156 5.42896L7.11114 5.63001H6.86987L7.07093 5.79085Z" fill="white"/>
<path d="M8.31763 5.79085L8.23721 5.9919L8.43826 5.87127L8.5991 5.9919L8.55889 5.79085L8.71973 5.63001H8.51868L8.43826 5.42896L8.35784 5.63001H8.11658L8.31763 5.79085Z" fill="white"/>
<path d="M9.56409 5.79085L9.48367 5.9919L9.68472 5.87127L9.84556 5.9919L9.80535 5.79085L9.96619 5.63001H9.72493L9.68472 5.42896L9.6043 5.63001H9.36304L9.56409 5.79085Z" fill="white"/>
</g>
<defs>
<clipPath id="clip0">
<rect width="24.9305" height="24.9305" fill="white" transform="translate(0.235352 0.322266)"/>
</clipPath>
</defs>
</svg>
